<svg width="64" height="64" viewBox="0 0 64 64" fill="none" xmlns="http://www.w3.org/2000/svg">
<path d="M43.5142 3.0625C44.5702 2.87052 45.5655 3.13499 46.4106 3.72656C47.265 4.32464 47.8603 5.21125 48.2866 6.18555L48.2983 6.21191L48.3091 6.2373C48.737 7.30729 48.9068 8.96237 48.9575 10.9355L48.9868 11.8604C49.0324 14.0722 48.9177 16.6681 48.6519 19.6367C48.5076 21.2471 48.5424 22.366 48.6821 23.0742C48.726 23.2964 48.7729 23.4413 48.8091 23.5322C48.8694 23.5186 48.95 23.4972 49.0532 23.4609C49.4502 23.3212 50.0045 23.0344 50.7319 22.542L51.0542 22.3184C51.4893 22.0049 52.0628 21.7139 52.7476 21.6777C53.4033 21.6433 53.9877 21.8516 54.4585 22.1973L54.6538 22.3535L54.8062 22.4961C55.5398 23.2255 55.9045 24.2655 56.1128 25.248L56.1675 25.5439C56.2842 26.2801 56.3181 27.3322 56.2944 28.4961C56.2662 29.8817 56.1512 31.5853 55.9243 33.4375C55.4742 37.1123 54.5668 41.4993 52.9399 45.1963L52.9409 45.1973C51.1703 49.3635 48.9246 52.799 46.1714 55.4443C42.1986 59.2614 37.5103 60.8699 33.8774 61.5322C32.0558 61.8643 30.476 61.9629 29.3452 61.9785C28.7791 61.9863 28.3227 61.9736 28.0015 61.958C27.841 61.9502 27.7139 61.9414 27.6235 61.9346C27.5784 61.9311 27.5416 61.9281 27.5151 61.9258C27.5022 61.9246 27.4912 61.9236 27.4829 61.9229C27.4812 61.9227 27.4795 61.922 27.478 61.9219V61.9229C27.4752 61.9226 27.4721 61.9221 27.4692 61.9219H27.4683L27.4673 61.9209C22.1815 61.4218 16.8918 58.2951 13.9126 55.4482C10.8757 52.5462 8.53273 48.2862 7.71045 43.8916C6.76521 39.3228 6.75793 34.7707 7.71826 30.5557L7.72021 30.5449C8.73386 26.2236 10.6673 22.4763 13.5298 19.3438C14.5646 18.2057 15.5226 17.2859 16.396 16.6309C17.2167 16.0154 18.1945 15.4535 19.2358 15.4014V15.4023C19.791 15.3625 20.3585 15.4709 20.8784 15.7715C21.4065 16.0769 21.7788 16.5166 22.0396 16.9619C22.5357 17.8096 22.7652 18.9126 22.8726 20.0664L22.8755 20.0938V20.1055C22.9005 20.3799 22.9351 20.7477 22.979 21.0986C23.0018 21.2811 23.0254 21.4454 23.0493 21.5791L23.0894 21.7725L23.1138 21.8428L23.1313 21.915C23.2691 22.4856 23.4251 22.7371 23.4976 22.8223L23.5259 22.8242L23.5884 22.832C23.6139 22.8351 23.9714 22.8573 24.7476 22.1328C25.2918 21.5364 26.0828 20.4844 27.1353 18.9072C28.4375 16.8538 29.4812 15.2745 30.2583 14.1865C31.5881 12.2455 32.8904 10.6009 34.1675 9.27051C35.3755 8.01009 36.6199 6.89579 37.9028 5.93359C39.8417 4.46713 41.7036 3.44974 43.4604 3.07324L43.4878 3.06738L43.5142 3.0625Z" fill="#5DB9FF"/>
<path d="M43.5142 3.0625L43.2906 1.83265L43.2865 1.8334L43.5142 3.0625ZM46.4106 3.72656L47.1275 2.70255L47.1274 2.7025L46.4106 3.72656ZM48.2866 6.18555L47.1414 6.68663L47.1444 6.69322L48.2866 6.18555ZM48.2983 6.21191L49.4496 5.72486C49.4466 5.71796 49.4436 5.71109 49.4406 5.70424L48.2983 6.21191ZM48.3091 6.2373L49.4697 5.77312C49.4666 5.76547 49.4635 5.75784 49.4603 5.75025L48.3091 6.2373ZM48.9575 10.9355L47.7079 10.9677L47.7081 10.9751L48.9575 10.9355ZM48.9868 11.8604L50.2366 11.8346L50.2362 11.8208L48.9868 11.8604ZM48.6519 19.6367L47.4068 19.5252V19.5252L48.6519 19.6367ZM48.6821 23.0742L47.4558 23.3163L47.4558 23.3163L48.6821 23.0742ZM48.8091 23.5322L47.6477 23.9946C47.8753 24.566 48.4847 24.8871 49.0846 24.7515L48.8091 23.5322ZM49.0532 23.4609L49.4681 24.6401L49.4681 24.6401L49.0532 23.4609ZM50.7319 22.542L51.4326 23.5772C51.4366 23.5744 51.4406 23.5717 51.4446 23.5689L50.7319 22.542ZM51.0542 22.3184L51.7668 23.3453C51.7729 23.3411 51.7789 23.3369 51.7848 23.3326L51.0542 22.3184ZM52.7476 21.6777L52.6819 20.4295L52.6817 20.4295L52.7476 21.6777ZM54.4585 22.1973L55.2394 21.2212C55.2259 21.2104 55.2122 21.1999 55.1983 21.1897L54.4585 22.1973ZM54.6538 22.3535L55.508 21.4409C55.4844 21.4188 55.4599 21.3976 55.4347 21.3774L54.6538 22.3535ZM54.8062 22.4961L55.6875 21.6097C55.6786 21.6008 55.6695 21.592 55.6603 21.5834L54.8062 22.4961ZM56.1128 25.248L57.342 25.0209C57.34 25.0102 57.3379 24.9995 57.3356 24.9888L56.1128 25.248ZM56.1675 25.5439L57.4021 25.3482C57.4004 25.3377 57.3986 25.3272 57.3967 25.3168L56.1675 25.5439ZM56.2944 28.4961L57.5442 28.5216V28.5215L56.2944 28.4961ZM55.9243 33.4375L57.165 33.5895L57.165 33.5895L55.9243 33.4375ZM52.9399 45.1963L51.7958 44.6928C51.5882 45.1647 51.6915 45.7156 52.0561 46.0802L52.9399 45.1963ZM52.9409 45.1973L54.0913 45.6862C54.2907 45.2171 54.1853 44.6738 53.8248 44.3134L52.9409 45.1973ZM46.1714 55.4443L47.0374 56.3457L47.0374 56.3457L46.1714 55.4443ZM33.8774 61.5322L34.1016 62.762H34.1017L33.8774 61.5322ZM29.3452 61.9785L29.3625 63.2284H29.3625L29.3452 61.9785ZM28.0015 61.958L27.9408 63.2065H27.9408L28.0015 61.958ZM27.6235 61.9346L27.5289 63.181L27.5289 63.181L27.6235 61.9346ZM27.5151 61.9258L27.4045 63.1709L27.4046 63.1709L27.5151 61.9258ZM27.4829 61.9229L27.3646 63.1672L27.3648 63.1673L27.4829 61.9229ZM27.478 61.9219L27.6219 60.6802C27.2677 60.6391 26.9128 60.7513 26.6466 60.9885C26.3803 61.2257 26.228 61.5653 26.228 61.9219H27.478ZM27.478 61.9229L27.3614 63.1674C27.7116 63.2002 28.0595 63.0839 28.3196 62.8471C28.5798 62.6102 28.728 62.2747 28.728 61.9229H27.478ZM27.4692 61.9219L27.5886 60.6776C27.5489 60.6738 27.5091 60.6719 27.4692 60.6719V61.9219ZM27.4683 61.9219L26.5844 62.8058C26.8188 63.0402 27.1367 63.1719 27.4683 63.1719V61.9219ZM27.4673 61.9209L28.3512 61.037C28.1455 60.8313 27.8744 60.7038 27.5848 60.6764L27.4673 61.9209ZM13.9126 55.4482L13.049 56.352L13.049 56.352L13.9126 55.4482ZM7.71045 43.8916L8.93913 43.6617C8.93767 43.6539 8.93613 43.6461 8.93453 43.6384L7.71045 43.8916ZM7.71826 30.5557L8.93703 30.8333C8.94112 30.8154 8.94481 30.7974 8.9481 30.7793L7.71826 30.5557ZM7.72021 30.5449L6.50325 30.2595C6.49844 30.28 6.49415 30.3006 6.49038 30.3213L7.72021 30.5449ZM13.5298 19.3438L14.4526 20.187L14.4546 20.1847L13.5298 19.3438ZM16.396 16.6309L15.6461 15.6308L15.646 15.6309L16.396 16.6309ZM19.2358 15.4014H20.4858C20.4858 15.059 20.3454 14.7316 20.0974 14.4957C19.8493 14.2597 19.5153 14.1358 19.1734 14.1529L19.2358 15.4014ZM19.2358 15.4023H17.9858C17.9858 15.7494 18.1301 16.0808 18.3842 16.3173C18.6382 16.5538 18.9791 16.674 19.3253 16.6491L19.2358 15.4023ZM20.8784 15.7715L21.5043 14.6895L21.504 14.6893L20.8784 15.7715ZM22.0396 16.9619L23.1183 16.3305L23.1183 16.3303L22.0396 16.9619ZM22.8726 20.0664L21.6279 20.1822C21.6285 20.188 21.6291 20.1938 21.6297 20.1996L22.8726 20.0664ZM22.8755 20.0938H24.1255C24.1255 20.0493 24.1231 20.0048 24.1184 19.9606L22.8755 20.0938ZM22.8755 20.1055H21.6255C21.6255 20.1433 21.6272 20.1811 21.6306 20.2188L22.8755 20.1055ZM22.979 21.0986L21.7387 21.2537L21.7387 21.2537L22.979 21.0986ZM23.0493 21.5791L21.8188 21.7988C21.8208 21.8101 21.823 21.8214 21.8253 21.8326L23.0493 21.5791ZM23.0894 21.7725L21.8653 22.0259C21.8763 22.079 21.8907 22.1313 21.9085 22.1825L23.0894 21.7725ZM23.1138 21.8428L24.3284 21.5473C24.3189 21.5086 24.3077 21.4704 24.2946 21.4328L23.1138 21.8428ZM23.1313 21.915L24.3464 21.6217L24.3459 21.6196L23.1313 21.915ZM23.4976 22.8223L22.5455 23.6323C22.7636 23.8886 23.0758 24.0462 23.4116 24.0693L23.4976 22.8223ZM23.5259 22.8242L23.6809 21.5839C23.658 21.581 23.635 21.5788 23.6119 21.5772L23.5259 22.8242ZM23.5884 22.832L23.4333 24.0724L23.4373 24.0729L23.5884 22.832ZM24.7476 22.1328L25.6005 23.0466C25.6249 23.0238 25.6484 23.0001 25.6709 22.9754L24.7476 22.1328ZM27.1353 18.9072L28.175 19.6011C28.1804 19.593 28.1857 19.5849 28.1909 19.5767L27.1353 18.9072ZM30.2583 14.1865L31.2755 14.9131C31.2802 14.9064 31.2849 14.8997 31.2895 14.893L30.2583 14.1865ZM34.1675 9.27051L35.0692 10.1362L35.0699 10.1354L34.1675 9.27051ZM37.9028 5.93359L38.6528 6.9336L38.6569 6.93055L37.9028 5.93359ZM43.4604 3.07324L43.1985 1.85099L43.1985 1.85099L43.4604 3.07324ZM43.4878 3.06738L43.2602 1.83828C43.2487 1.8404 43.2373 1.84269 43.2259 1.84513L43.4878 3.06738ZM43.5142 3.0625L43.7377 4.29234C44.4328 4.16599 45.0937 4.33056 45.6938 4.75062L46.4106 3.72656L47.1274 2.7025C46.0373 1.93943 44.7076 1.57506 43.2906 1.83266L43.5142 3.0625ZM46.4106 3.72656L45.6938 4.75057C46.2954 5.17176 46.7694 5.8363 47.1414 6.68662L48.2866 6.18555L49.4318 5.68447C48.9512 4.58621 48.2345 3.47752 47.1275 2.70255L46.4106 3.72656ZM48.2866 6.18555L47.1444 6.69322L47.1561 6.71959L48.2983 6.21191L49.4406 5.70424L49.4289 5.67787L48.2866 6.18555ZM48.2983 6.21191L47.1471 6.69896L47.1579 6.72435L48.3091 6.2373L49.4603 5.75025L49.4496 5.72486L48.2983 6.21191ZM48.3091 6.2373L47.1485 6.70149C47.4841 7.54072 47.6571 8.98927 47.7079 10.9677L48.9575 10.9355L50.2071 10.9034C50.1565 8.93547 49.9899 7.07386 49.4697 5.77312L48.3091 6.2373ZM48.9575 10.9355L47.7081 10.9751L47.7374 11.8999L48.9868 11.8604L50.2362 11.8208L50.2069 10.896L48.9575 10.9355ZM48.9868 11.8604L47.7371 11.8861C47.7814 14.0384 47.67 16.5862 47.4068 19.5252L48.6519 19.6367L49.8969 19.7482C50.1653 16.7501 50.2833 14.106 50.2365 11.8346L48.9868 11.8604ZM48.6519 19.6367L47.4068 19.5252C47.2586 21.1805 47.2822 22.4366 47.4558 23.3163L48.6821 23.0742L49.9085 22.8322C49.8025 22.2954 49.7567 21.3137 49.8969 19.7482L48.6519 19.6367ZM48.6821 23.0742L47.4558 23.3163C47.5124 23.6032 47.5794 23.823 47.6477 23.9946L48.8091 23.5322L49.9704 23.0698C49.9663 23.0595 49.9395 22.9895 49.9085 22.8321L48.6821 23.0742ZM48.8091 23.5322L49.0846 24.7515C49.1881 24.7281 49.3156 24.6938 49.4681 24.6401L49.0532 23.4609L48.6383 22.2818C48.5845 22.3007 48.5507 22.3091 48.5336 22.313L48.8091 23.5322ZM49.0532 23.4609L49.4681 24.6401C50.0063 24.4507 50.6604 24.0998 51.4326 23.5772L50.7319 22.542L50.0313 21.5068C49.3486 21.9689 48.8942 22.1918 48.6383 22.2818L49.0532 23.4609ZM50.7319 22.542L51.4446 23.5689L51.7668 23.3453L51.0542 22.3184L50.3416 21.2914L50.0193 21.515L50.7319 22.542ZM51.0542 22.3184L51.7848 23.3326C52.1042 23.1025 52.4496 22.9452 52.8134 22.926L52.7476 21.6777L52.6817 20.4295C51.6761 20.4825 50.8744 20.9073 50.3236 21.3041L51.0542 22.3184ZM52.7476 21.6777L52.8132 22.926C53.1519 22.9082 53.4562 23.0121 53.7187 23.2048L54.4585 22.1973L55.1983 21.1897C54.5192 20.6911 53.6546 20.3783 52.6819 20.4295L52.7476 21.6777ZM54.4585 22.1973L53.6776 23.1734L53.8729 23.3296L54.6538 22.3535L55.4347 21.3774L55.2394 21.2212L54.4585 22.1973ZM54.6538 22.3535L53.7997 23.2662L53.952 23.4087L54.8062 22.4961L55.6603 21.5834L55.508 21.4409L54.6538 22.3535ZM54.8062 22.4961L53.9248 23.3825C54.3977 23.8526 54.6978 24.6009 54.89 25.5073L56.1128 25.248L57.3356 24.9888C57.1112 23.9301 56.6819 22.5984 55.6875 21.6097L54.8062 22.4961ZM56.1128 25.248L54.8836 25.4752L54.9383 25.7711L56.1675 25.5439L57.3967 25.3168L57.342 25.0209L56.1128 25.248ZM56.1675 25.5439L54.9329 25.7397C55.0318 26.3634 55.068 27.326 55.0447 28.4707L56.2944 28.4961L57.5442 28.5215C57.5683 27.3384 57.5366 26.1968 57.4021 25.3482L56.1675 25.5439ZM56.2944 28.4961L55.0447 28.4706C55.0174 29.8111 54.9057 31.4723 54.6836 33.2855L55.9243 33.4375L57.165 33.5895C57.3967 31.6982 57.515 29.9524 57.5442 28.5216L56.2944 28.4961ZM55.9243 33.4375L54.6836 33.2855C54.2412 36.8977 53.3542 41.1513 51.7958 44.6928L52.9399 45.1963L54.0841 45.6998C55.7793 41.8474 56.7073 37.3268 57.165 33.5895L55.9243 33.4375ZM52.9399 45.1963L52.0561 46.0802L52.057 46.0812L52.9409 45.1973L53.8248 44.3134L53.8238 44.3124L52.9399 45.1963ZM52.9409 45.1973L51.7905 44.7083C50.0711 48.7539 47.9124 52.038 45.3053 54.543L46.1714 55.4443L47.0374 56.3457C49.9367 53.5599 52.2694 49.9731 54.0913 45.6862L52.9409 45.1973ZM46.1714 55.4443L45.3054 54.543C41.5643 58.1373 37.1319 59.6682 33.6532 60.3025L33.8774 61.5322L34.1017 62.762C37.8886 62.0715 42.8328 60.3854 47.0374 56.3457L46.1714 55.4443ZM33.8774 61.5322L33.6532 60.3025C31.9127 60.6198 30.4037 60.7138 29.3279 60.7286L29.3452 61.9785L29.3625 63.2284C30.5484 63.212 32.199 63.1088 34.1016 62.762L33.8774 61.5322ZM29.3452 61.9785L29.3279 60.7286C28.7896 60.7361 28.3592 60.7239 28.0621 60.7095L28.0015 61.958L27.9408 63.2065C28.2861 63.2233 28.7686 63.2366 29.3625 63.2284L29.3452 61.9785ZM28.0015 61.958L28.0621 60.7095C27.9155 60.7024 27.7999 60.6944 27.7181 60.6882L27.6235 61.9346L27.5289 63.181C27.6278 63.1885 27.7666 63.1981 27.9408 63.2065L28.0015 61.958ZM27.6235 61.9346L27.7182 60.6882C27.6765 60.685 27.6452 60.6824 27.6256 60.6807L27.5151 61.9258L27.4046 63.1709C27.438 63.1738 27.4804 63.1773 27.5289 63.181L27.6235 61.9346ZM27.5151 61.9258L27.6257 60.6807C27.6131 60.6796 27.6053 60.6789 27.601 60.6784L27.4829 61.9229L27.3648 63.1673C27.3771 63.1684 27.3912 63.1697 27.4045 63.1709L27.5151 61.9258ZM27.4829 61.9229L27.6012 60.6785C27.63 60.6812 27.6554 60.6846 27.6768 60.688C27.6981 60.6914 27.7165 60.6948 27.7309 60.6978C27.7452 60.7007 27.757 60.7033 27.7648 60.7052C27.7723 60.7069 27.7781 60.7083 27.7792 60.7086C27.7796 60.7087 27.7798 60.7088 27.7798 60.7088C27.7798 60.7088 27.7798 60.7088 27.7798 60.7088C27.7798 60.7087 27.7798 60.7087 27.7797 60.7087C27.7797 60.7087 27.7797 60.7087 27.7796 60.7087C27.7795 60.7087 27.7794 60.7086 27.7791 60.7086C27.7784 60.7084 27.7765 60.7079 27.7741 60.7074C27.7695 60.7062 27.76 60.704 27.7481 60.7014C27.7361 60.6987 27.7191 60.6951 27.6987 60.6915C27.6783 60.6878 27.6523 60.6837 27.6219 60.6802L27.478 61.9219L27.3341 63.1636C27.3042 63.1601 27.2785 63.156 27.2585 63.1524C27.2384 63.1488 27.2219 63.1454 27.2102 63.1428C27.1987 63.1403 27.1897 63.1381 27.1855 63.1371C27.1833 63.1365 27.1815 63.1361 27.181 63.136C27.1808 63.1359 27.1805 63.1359 27.1807 63.1359C27.1807 63.1359 27.1811 63.136 27.1816 63.1361C27.1831 63.1365 27.1893 63.138 27.1973 63.1399C27.2055 63.1418 27.2176 63.1445 27.2324 63.1476C27.2472 63.1506 27.266 63.1541 27.2878 63.1575C27.3096 63.161 27.3354 63.1645 27.3646 63.1672L27.4829 61.9229ZM27.478 61.9219H26.228V61.9229H27.478H28.728V61.9219H27.478ZM27.478 61.9229L27.5947 60.6783C27.6042 60.6792 27.6117 60.68 27.6157 60.6805C27.6194 60.6809 27.6224 60.6812 27.6212 60.6811C27.6212 60.6811 27.6199 60.681 27.6187 60.6808C27.6173 60.6806 27.6151 60.6804 27.6125 60.6801C27.6075 60.6795 27.599 60.6786 27.5886 60.6776L27.4692 61.9219L27.3499 63.1662C27.3409 63.1653 27.3339 63.1645 27.3303 63.1641C27.3271 63.1638 27.3244 63.1634 27.326 63.1636C27.3264 63.1637 27.3308 63.1642 27.336 63.1648C27.3415 63.1654 27.3504 63.1664 27.3614 63.1674L27.478 61.9229ZM27.4692 61.9219V60.6719H27.4683V61.9219V63.1719H27.4692V61.9219ZM27.4683 61.9219L28.3521 61.038L28.3512 61.037L27.4673 61.9209L26.5834 62.8048L26.5844 62.8058L27.4683 61.9219ZM27.4673 61.9209L27.5848 60.6764C22.6494 60.2104 17.6099 57.2524 14.7762 54.5445L13.9126 55.4482L13.049 56.352C16.1737 59.3378 21.7137 62.6332 27.3498 63.1654L27.4673 61.9209ZM13.9126 55.4482L14.7762 54.5445C11.9301 51.8247 9.71365 47.8011 8.93913 43.6617L7.71045 43.8916L6.48177 44.1215C7.35181 48.7714 9.82138 53.2676 13.049 56.352L13.9126 55.4482ZM7.71045 43.8916L8.93453 43.6384C8.02203 39.2278 8.02016 34.8576 8.93703 30.8333L7.71826 30.5557L6.49949 30.278C5.4957 34.6837 5.50838 39.4178 6.48637 44.1449L7.71045 43.8916ZM7.71826 30.5557L8.9481 30.7793L8.95005 30.7685L7.72021 30.5449L6.49038 30.3213L6.48842 30.3321L7.71826 30.5557ZM7.72021 30.5449L8.93718 30.8304C9.90502 26.7044 11.7427 23.1525 14.4526 20.187L13.5298 19.3438L12.607 18.5005C9.59186 21.8002 7.56271 25.7428 6.50325 30.2595L7.72021 30.5449ZM13.5298 19.3438L14.4546 20.1847C15.4634 19.0753 16.3613 18.2193 17.146 17.6309L16.396 16.6309L15.646 15.6309C14.6839 16.3525 13.6659 17.336 12.605 18.5028L13.5298 19.3438ZM16.396 16.6309L17.1459 17.6309C17.9148 17.0543 18.6416 16.6827 19.2983 16.6498L19.2358 15.4014L19.1734 14.1529C17.7473 14.2243 16.5186 14.9765 15.6461 15.6308L16.396 16.6309ZM19.2358 15.4014H17.9858V15.4023H19.2358H20.4858V15.4014H19.2358ZM19.2358 15.4023L19.3253 16.6491C19.6549 16.6255 19.9693 16.6897 20.2528 16.8537L20.8784 15.7715L21.504 14.6893C20.7477 14.252 19.927 14.0995 19.1464 14.1555L19.2358 15.4023ZM20.8784 15.7715L20.2525 16.8535C20.5468 17.0237 20.7788 17.2826 20.9608 17.5935L22.0396 16.9619L23.1183 16.3303C22.7788 15.7506 22.2661 15.1301 21.5043 14.6895L20.8784 15.7715ZM22.0396 16.9619L20.9608 17.5933C21.3175 18.2029 21.526 19.0864 21.6279 20.1822L22.8726 20.0664L24.1172 19.9506C24.0044 18.7388 23.7539 17.4163 23.1183 16.3305L22.0396 16.9619ZM22.8726 20.0664L21.6297 20.1996L21.6326 20.2269L22.8755 20.0938L24.1184 19.9606L24.1154 19.9332L22.8726 20.0664ZM22.8755 20.0938H21.6255V20.1055H22.8755H24.1255V20.0938H22.8755ZM22.8755 20.1055L21.6306 20.2188C21.6557 20.4945 21.692 20.8803 21.7387 21.2537L22.979 21.0986L24.2194 20.9436C24.1783 20.6151 24.1452 20.2652 24.1203 19.9922L22.8755 20.1055ZM22.979 21.0986L21.7387 21.2537C21.7628 21.4471 21.7896 21.6352 21.8188 21.7988L23.0493 21.5791L24.2799 21.3594C24.2613 21.2557 24.2408 21.1152 24.2193 20.9435L22.979 21.0986ZM23.0493 21.5791L21.8253 21.8326L21.8653 22.0259L23.0894 21.7725L24.3134 21.519L24.2733 21.3256L23.0493 21.5791ZM23.0894 21.7725L21.9085 22.1825L21.9329 22.2528L23.1138 21.8428L24.2946 21.4328L24.2702 21.3624L23.0894 21.7725ZM23.1138 21.8428L21.8992 22.1382L21.9168 22.2105L23.1313 21.915L24.3459 21.6196L24.3284 21.5473L23.1138 21.8428ZM23.1313 21.915L21.9163 22.2084C22.079 22.8825 22.2986 23.3421 22.5455 23.6323L23.4976 22.8223L24.4496 22.0122C24.5089 22.0819 24.5096 22.106 24.4785 22.0371C24.4503 21.9744 24.4002 21.8445 24.3464 21.6217L23.1313 21.915ZM23.4976 22.8223L23.4116 24.0693L23.4399 24.0713L23.5259 22.8242L23.6119 21.5772L23.5836 21.5752L23.4976 22.8223ZM23.5259 22.8242L23.3708 24.0646L23.4333 24.0724L23.5884 22.832L23.7434 21.5917L23.6809 21.5839L23.5259 22.8242ZM23.5884 22.832L23.4373 24.0729C23.999 24.1413 24.7111 23.8768 25.6005 23.0466L24.7476 22.1328L23.8946 21.219C23.5766 21.5159 23.4065 21.6006 23.3769 21.6138C23.3487 21.6264 23.4821 21.5599 23.7395 21.5912L23.5884 22.832ZM24.7476 22.1328L25.6709 22.9754C26.2812 22.3067 27.1146 21.1902 28.175 19.6011L27.1353 18.9072L26.0955 18.2134C25.051 19.7786 24.3024 20.7662 23.8242 21.2902L24.7476 22.1328ZM27.1353 18.9072L28.1909 19.5767C29.4894 17.5291 30.5186 15.9727 31.2755 14.9131L30.2583 14.1865L29.2411 13.46C28.4438 14.5763 27.3855 16.1786 26.0796 18.2378L27.1353 18.9072ZM30.2583 14.1865L31.2895 14.893C32.5923 12.9915 33.852 11.4041 35.0692 10.1362L34.1675 9.27051L33.2657 8.40486C31.9288 9.79756 30.584 11.4995 29.2271 13.48L30.2583 14.1865ZM34.1675 9.27051L35.0699 10.1354C36.236 8.91873 37.43 7.85075 38.6528 6.93359L37.9028 5.93359L37.1528 4.9336C35.8099 5.94084 34.5149 7.10145 33.265 8.4056L34.1675 9.27051ZM37.9028 5.93359L38.6569 6.93055C40.5297 5.51408 42.221 4.61725 43.7224 4.29549L43.4604 3.07324L43.1985 1.85099C41.1862 2.28223 39.1538 3.42018 37.1488 4.93664L37.9028 5.93359ZM43.4604 3.07324L43.7224 4.2955L43.7497 4.28964L43.4878 3.06738L43.2259 1.84513L43.1985 1.85099L43.4604 3.07324ZM43.4878 3.06738L43.7154 4.29649L43.7418 4.2916L43.5142 3.0625L43.2865 1.8334L43.2602 1.83828L43.4878 3.06738Z" fill="#1793FF"/>
<path d="M44.1617 6.50781C44.2048 6.50144 44.265 6.50383 44.399 6.59766C44.5427 6.69824 44.7903 6.95505 45.0582 7.55664C45.2258 7.99369 45.4023 9.07284 45.4518 11.0527V11.0693L45.4528 11.085C45.5482 13.2793 45.4545 16.0194 45.1588 19.3213C45.0033 21.0576 45.0062 22.5609 45.2408 23.75C45.4571 24.8454 45.9714 26.1406 47.2428 26.7363V26.7383C47.2662 26.75 47.2906 26.7595 47.3141 26.7705C47.3216 26.7738 47.329 26.778 47.3365 26.7812V26.7803C48.3288 27.2346 49.3814 27.0617 50.2174 26.7676C50.9579 26.507 51.7453 26.0764 52.568 25.5293C52.6065 25.6573 52.6463 25.8072 52.6832 25.9824L52.6842 25.9902L52.6862 25.9971C52.7502 26.2887 52.8145 27.1077 52.7877 28.4219C52.7621 29.6812 52.6564 31.2663 52.443 33.0088C52.0134 36.5159 51.1621 40.5373 49.7223 43.8008L49.7125 43.8223C48.0857 47.65 46.0842 50.6606 43.7408 52.9121C40.4184 56.1043 36.4488 57.4947 33.2487 58.0781C31.6541 58.3688 30.2731 58.4543 29.2975 58.4678C28.8106 58.4745 28.4267 58.4636 28.1715 58.4512C28.0443 58.445 27.9493 58.4381 27.8893 58.4336C27.8593 58.4313 27.8377 58.4298 27.8258 58.4287C27.8218 58.4284 27.8189 58.4279 27.817 58.4277H27.818L27.8053 58.4268C23.5005 58.0231 18.9093 55.3676 16.3365 52.9092C13.8276 50.5115 11.8359 46.9015 11.153 43.2139L11.149 43.1963L11.1451 43.1777C10.2918 39.053 10.299 35.0106 11.1373 31.3311C12.0231 27.5627 13.6881 24.3681 16.1198 21.707L16.1227 21.7031C17.0851 20.6445 17.8756 19.9034 18.5006 19.4346C18.7767 19.2275 18.9855 19.1002 19.1334 19.0225C19.1549 19.0881 19.1783 19.1647 19.2008 19.2539C19.2731 19.5408 19.3354 19.9148 19.3795 20.3887C19.4043 20.6608 19.4448 21.099 19.4987 21.5303C19.5429 21.884 19.6149 22.3864 19.735 22.7871C19.9462 23.6398 20.2837 24.4676 20.8492 25.1201C21.4678 25.8337 22.3002 26.2654 23.2672 26.3193C24.7907 26.4633 26.1278 25.6573 27.1969 24.6445L27.2379 24.6064L27.276 24.5645C28.026 23.7566 28.9648 22.4843 30.0729 20.8223L30.0944 20.7891C31.3882 18.7488 32.3919 17.2321 33.1129 16.2227L33.1237 16.209L33.1334 16.1943C34.3945 14.3512 35.5831 12.8575 36.6979 11.6963L36.6989 11.6953C37.789 10.5578 38.8932 9.5737 40.0084 8.7373L40.0143 8.73242C41.7515 7.41782 43.125 6.73822 44.1617 6.50781Z" fill="#91D3FF" stroke="#5DB9FF" stroke-width="3.5"/>
<path d="M28.7758 37.1908C26.6112 37.5219 28.9827 30.757 26.58 30.3393C24.8201 29.8344 22.3647 32.4619 20.5377 34.3451C18.7107 36.2283 17.1002 39.4808 16.9928 42.5108C16.9391 44.2056 17.2345 45.8747 17.879 47.5181C18.4698 48.9561 19.2486 50.24 20.2154 51.3699C20.7525 52.0375 21.4776 52.6795 22.3907 53.2958C23.5723 54.0148 24.8882 54.5283 26.3383 54.8365C29.5072 55.5555 32.4076 55.1189 35.0393 53.5269C37.6711 51.9862 39.6853 49.7521 41.0817 46.8248C42.317 44.3083 43.0153 41.4837 43.1764 38.3509C43.2838 35.6804 43.0421 33.1896 42.4513 30.8785C39.8683 19.7642 32.9911 36.5459 28.7758 37.1908Z" fill="#C6E8F6"/>
</svg>
