<svg width="57" height="68" viewBox="0 0 57 68" fill="none" xmlns="http://www.w3.org/2000/svg">
<path d="M41.3737 2.06689C42.5194 1.85875 43.5994 2.14579 44.5163 2.7876C45.3276 3.35552 45.9235 4.16359 46.3698 5.06494L46.5524 5.45654L46.5641 5.48389L46.5759 5.51221C47.0403 6.6733 47.2249 8.46953 47.28 10.6108L47.3112 11.6138C47.3607 14.0139 47.2374 16.8311 46.9489 20.0522C46.7925 21.7993 46.8296 23.0132 46.9811 23.7817C47.0287 24.0225 47.0795 24.18 47.1188 24.2788C47.1843 24.264 47.2717 24.241 47.3835 24.2017C47.8757 24.0284 48.5909 23.6469 49.5544 22.9624C50.0266 22.6222 50.6492 22.3063 51.3923 22.2671C52.104 22.2297 52.7387 22.4553 53.2497 22.8306L53.4606 23.0005L53.6257 23.1548C54.4219 23.9462 54.8166 25.0749 55.0427 26.1411C55.2174 26.9369 55.2703 28.2222 55.2409 29.6655C55.2103 31.1691 55.0857 33.018 54.8395 35.0278C54.3511 39.0154 53.3665 43.776 51.6013 47.7876C49.6799 52.3085 47.2432 56.0372 44.2556 58.9077C39.9448 63.0493 34.8586 64.7944 30.9167 65.5132C28.9401 65.8736 27.2258 65.9806 25.9987 65.9976C25.3842 66.0061 24.8883 65.992 24.5397 65.9751C24.3655 65.9666 24.2276 65.9571 24.1296 65.9497C24.0806 65.946 24.0411 65.9435 24.0124 65.9409C23.9982 65.9397 23.9863 65.9379 23.9772 65.937C23.9755 65.9368 23.9739 65.9362 23.9724 65.936V65.937C23.9696 65.9368 23.9663 65.9363 23.9636 65.936H23.9597V65.9351C18.2241 65.3933 12.4842 62.0007 9.25165 58.9116C5.94743 55.754 3.4 51.1149 2.51434 46.3325L2.51532 46.3315C1.49779 41.3871 1.49062 36.4615 2.52997 31.8999L2.5329 31.8882C3.56411 27.4923 5.47251 23.644 8.2663 20.3794L8.83661 19.7339C9.95938 18.4992 10.9984 17.5012 11.946 16.7905C12.8229 16.1329 13.8656 15.5328 14.9763 15.4604C15.5951 15.4064 16.2299 15.5215 16.8102 15.8569C17.3836 16.1884 17.7879 16.6665 18.071 17.1499C18.5421 17.9548 18.7915 18.9719 18.9245 20.0522L18.9743 20.519L18.9753 20.5229C19.0027 20.8241 19.0409 21.2412 19.0905 21.6382C19.1152 21.8359 19.1408 22.0138 19.1667 22.1587L19.2106 22.3687L19.236 22.4458L19.2546 22.5249C19.4036 23.1423 19.5731 23.4152 19.652 23.5083L19.6833 23.5103L19.7516 23.519C19.7801 23.5225 20.168 23.5464 21.0085 22.7622C21.6025 22.1115 22.4674 20.9596 23.6198 19.231C25.0116 17.0371 26.1294 15.3435 26.9665 14.1694C28.4171 12.0493 29.8383 10.2541 31.2311 8.80322C32.5418 7.43572 33.8929 6.22708 35.2849 5.18311C37.3886 3.59198 39.4089 2.4871 41.3151 2.07861L41.3737 2.06689Z" fill="#A69788"/>
<path d="M41.3737 2.06689L41.1298 0.724115C41.1219 0.725553 41.114 0.72706 41.1061 0.728638L41.3737 2.06689ZM44.5163 2.7876L45.299 1.66955L45.2989 1.66951L44.5163 2.7876ZM46.3698 5.06494L47.6067 4.48814C47.6022 4.4785 47.5976 4.46891 47.5929 4.45938L46.3698 5.06494ZM46.5524 5.45654L47.8068 4.91894C47.8012 4.90578 47.7954 4.89272 47.7893 4.87974L46.5524 5.45654ZM46.5641 5.48389L47.8252 4.96207C47.823 4.95679 47.8208 4.95153 47.8186 4.94628L46.5641 5.48389ZM46.5759 5.51221L47.843 5.00535C47.841 5.00035 47.839 4.99536 47.8369 4.99039L46.5759 5.51221ZM47.28 10.6108L45.9156 10.6459L45.9159 10.6533L47.28 10.6108ZM47.3112 11.6138L48.6757 11.5857C48.6756 11.5809 48.6755 11.5761 48.6753 11.5713L47.3112 11.6138ZM46.9489 20.0522L48.3082 20.174V20.174L46.9489 20.0522ZM46.9811 23.7817L45.6422 24.0458L45.6422 24.046L46.9811 23.7817ZM47.1188 24.2788L45.8507 24.7832C46.099 25.4075 46.7647 25.7582 47.4199 25.6099L47.1188 24.2788ZM47.3835 24.2017L47.8365 25.4891L47.8366 25.489L47.3835 24.2017ZM49.5544 22.9624L50.3449 24.075L50.3522 24.0697L49.5544 22.9624ZM51.3923 22.2671L51.3206 20.9042L51.3203 20.9042L51.3923 22.2671ZM53.2497 22.8306L54.1059 21.7678C54.09 21.755 54.074 21.7426 54.0576 21.7306L53.2497 22.8306ZM53.4606 23.0005L54.3927 22.0036C54.3682 21.9807 54.3429 21.9587 54.3168 21.9377L53.4606 23.0005ZM53.6257 23.1548L54.5878 22.1868C54.5779 22.177 54.5679 22.1674 54.5577 22.1579L53.6257 23.1548ZM55.0427 26.1411L53.7076 26.4242L53.7096 26.4337L55.0427 26.1411ZM55.2409 29.6655L56.6054 29.6933V29.6933L55.2409 29.6655ZM54.8395 35.0278L56.1942 35.1938V35.1937L54.8395 35.0278ZM51.6013 47.7876L50.3521 47.2379C50.3498 47.2432 50.3475 47.2485 50.3452 47.2538L51.6013 47.7876ZM44.2556 58.9077L45.2011 59.8919L45.2011 59.8918L44.2556 58.9077ZM30.9167 65.5132L31.1615 66.8558L31.1615 66.8558L30.9167 65.5132ZM25.9987 65.9976L26.0176 67.3622H26.0176L25.9987 65.9976ZM24.5397 65.9751L24.4735 67.3382H24.4735L24.5397 65.9751ZM24.1296 65.9497L24.0262 67.3105H24.0263L24.1296 65.9497ZM24.0124 65.9409L23.8917 67.3003L23.8918 67.3003L24.0124 65.9409ZM23.9772 65.937L24.1066 64.5784L24.1064 64.5784L23.9772 65.937ZM23.9724 65.936L24.111 64.5783C23.7269 64.5391 23.3442 64.6644 23.0576 64.9232C22.7711 65.1819 22.6076 65.55 22.6076 65.936H23.9724ZM23.9724 65.937L23.845 67.2958C24.2274 67.3317 24.6072 67.2047 24.8912 66.9461C25.1752 66.6875 25.3371 66.3211 25.3371 65.937H23.9724ZM23.9636 65.936L24.0924 64.5774C24.0496 64.5733 24.0066 64.5713 23.9636 64.5713V65.936ZM23.9597 65.936H22.5949C22.5949 66.6898 23.2059 67.3008 23.9597 67.3008V65.936ZM23.9597 65.9351H25.3244C25.3244 65.231 24.7889 64.6426 24.088 64.5763L23.9597 65.9351ZM9.25165 58.9116L8.30875 59.8983L8.30876 59.8983L9.25165 58.9116ZM2.51434 46.3325L1.54931 45.3675C1.23153 45.6853 1.09057 46.1391 1.1724 46.581L2.51434 46.3325ZM2.51532 46.3315L3.48035 47.2966C3.80491 46.972 3.94459 46.506 3.85207 46.0564L2.51532 46.3315ZM2.52997 31.8999L1.20596 31.5689C1.20365 31.5781 1.20143 31.5874 1.19931 31.5967L2.52997 31.8999ZM2.5329 31.8882L3.85691 32.2192C3.85852 32.2128 3.86008 32.2063 3.86159 32.1999L2.5329 31.8882ZM8.2663 20.3794L7.24354 19.4758C7.23878 19.4812 7.23407 19.4866 7.2294 19.492L8.2663 20.3794ZM8.83661 19.7339L7.82688 18.8157C7.8225 18.8205 7.81816 18.8254 7.81385 18.8303L8.83661 19.7339ZM11.946 16.7905L11.1272 15.6987L11.1271 15.6987L11.946 16.7905ZM14.9763 15.4604L15.065 16.8223C15.075 16.8217 15.085 16.8209 15.095 16.82L14.9763 15.4604ZM16.8102 15.8569L17.4933 14.6754L17.4932 14.6753L16.8102 15.8569ZM18.071 17.1499L19.2488 16.4605L19.2487 16.4604L18.071 17.1499ZM18.9245 20.0522L20.2816 19.9075C20.2808 19.9001 20.2799 19.8928 20.279 19.8855L18.9245 20.0522ZM18.9743 20.519L17.6172 20.6638C17.6239 20.7266 17.635 20.7888 17.6503 20.85L18.9743 20.519ZM18.9753 20.5229L20.3344 20.3994C20.3281 20.3294 20.3163 20.2601 20.2993 20.1919L18.9753 20.5229ZM19.0905 21.6382L17.7363 21.8074L17.7363 21.8075L19.0905 21.6382ZM19.1667 22.1587L17.8231 22.3984C17.8255 22.4117 17.8281 22.425 17.8309 22.4383L19.1667 22.1587ZM19.2106 22.3687L17.8748 22.6482C17.8852 22.698 17.8984 22.7471 17.9143 22.7953L19.2106 22.3687ZM19.236 22.4458L20.5647 22.1341C20.5556 22.0954 20.5448 22.057 20.5324 22.0192L19.236 22.4458ZM19.2546 22.5249L17.9259 22.8366L17.9279 22.8452L19.2546 22.5249ZM19.652 23.5083L18.6107 24.3905C18.8508 24.6739 19.1961 24.8472 19.5669 24.8704L19.652 23.5083ZM19.6833 23.5103L19.8573 22.1566C19.8278 22.1528 19.7981 22.15 19.7684 22.1482L19.6833 23.5103ZM19.7516 23.519L19.5776 24.8727L19.5888 24.874L19.7516 23.519ZM21.0085 22.7622L21.9395 23.7601C21.9662 23.7352 21.9918 23.7093 22.0164 23.6823L21.0085 22.7622ZM23.6198 19.231L24.7554 19.988C24.7611 19.9794 24.7667 19.9707 24.7722 19.962L23.6198 19.231ZM26.9665 14.1694L28.0778 14.9617C28.0828 14.9545 28.0879 14.9473 28.0928 14.9401L26.9665 14.1694ZM31.2311 8.80322L32.2157 9.74836L32.2164 9.74756L31.2311 8.80322ZM35.2849 5.18311L36.1037 6.27492L36.1081 6.2716L35.2849 5.18311ZM41.3151 2.07861L41.0475 0.740357C41.0414 0.741579 41.0353 0.742843 41.0292 0.744148L41.3151 2.07861ZM41.3737 2.06689L41.6177 3.40967C42.3693 3.27313 43.0842 3.45107 43.7337 3.90568L44.5163 2.7876L45.2989 1.66951C44.1145 0.84052 42.6696 0.444374 41.1298 0.724115L41.3737 2.06689ZM44.5163 2.7876L43.7336 3.90564C44.3022 4.30366 44.7671 4.90376 45.1468 5.67051L46.3698 5.06494L47.5929 4.45938C47.0799 3.42342 46.353 2.40738 45.299 1.66955L44.5163 2.7876ZM46.3698 5.06494L45.1329 5.64174L45.3155 6.03334L46.5524 5.45654L47.7893 4.87974L47.6067 4.48814L46.3698 5.06494ZM46.5524 5.45654L45.298 5.99415L45.3097 6.02149L46.5641 5.48389L47.8186 4.94628L47.8068 4.91894L46.5524 5.45654ZM46.5641 5.48389L45.3031 6.0057L45.3148 6.03403L46.5759 5.51221L47.8369 4.99039L47.8252 4.96207L46.5641 5.48389ZM46.5759 5.51221L45.3087 6.01907C45.6724 6.92828 45.8605 8.49915 45.9157 10.6459L47.28 10.6108L48.6443 10.5758C48.5894 8.43991 48.4082 6.41831 47.843 5.00535L46.5759 5.51221ZM47.28 10.6108L45.9159 10.6533L45.9471 11.6563L47.3112 11.6138L48.6753 11.5713L48.6441 10.5683L47.28 10.6108ZM47.3112 11.6138L45.9467 11.6419C45.9949 13.9773 45.8751 16.742 45.5896 19.9305L46.9489 20.0522L48.3082 20.174C48.5996 16.9202 48.7265 14.0504 48.6757 11.5857L47.3112 11.6138ZM46.9489 20.0522L45.5896 19.9305C45.4288 21.7261 45.4537 23.09 45.6422 24.0458L46.9811 23.7817L48.3201 23.5177C48.2055 22.9364 48.1561 21.8725 48.3082 20.174L46.9489 20.0522ZM46.9811 23.7817L45.6422 24.046C45.7037 24.3573 45.7765 24.5965 45.8507 24.7832L47.1188 24.2788L48.387 23.7744C48.3826 23.7635 48.3537 23.6877 48.3201 23.5175L46.9811 23.7817ZM47.1188 24.2788L47.4199 25.6099C47.5309 25.5848 47.6696 25.5478 47.8365 25.4891L47.3835 24.2017L46.9305 22.9143C46.8739 22.9342 46.8376 22.9432 46.8177 22.9477L47.1188 24.2788ZM47.3835 24.2017L47.8366 25.489C48.5001 25.2555 49.334 24.7932 50.3448 24.0749L49.5544 22.9624L48.7639 21.8499C47.8479 22.5007 47.2513 22.8014 46.9304 22.9143L47.3835 24.2017ZM49.5544 22.9624L50.3522 24.0697C50.6979 23.8206 51.0713 23.6507 51.4642 23.63L51.3923 22.2671L51.3203 20.9042C50.227 20.962 49.3552 21.4238 48.7566 21.8551L49.5544 22.9624ZM51.3923 22.2671L51.464 23.63C51.8305 23.6107 52.1591 23.7229 52.4418 23.9305L53.2497 22.8306L54.0576 21.7306C53.3184 21.1876 52.3776 20.8486 51.3206 20.9042L51.3923 22.2671ZM53.2497 22.8306L52.3935 23.8934L52.6045 24.0633L53.4606 23.0005L54.3168 21.9377L54.1059 21.7678L53.2497 22.8306ZM53.4606 23.0005L52.5286 23.9974L52.6936 24.1517L53.6257 23.1548L54.5577 22.1579L54.3927 22.0036L53.4606 23.0005ZM53.6257 23.1548L52.6636 24.1227C53.1744 24.6305 53.4989 25.44 53.7076 26.4242L55.0427 26.1411L56.3777 25.858C56.1343 24.7099 55.6693 23.2618 54.5878 22.1868L53.6257 23.1548ZM55.0427 26.1411L53.7096 26.4337C53.8467 27.0583 53.9056 28.2023 53.8764 29.6378L55.2409 29.6655L56.6054 29.6933C56.6349 28.2421 56.588 26.8155 56.3757 25.8485L55.0427 26.1411ZM55.2409 29.6655L53.8764 29.6377C53.8468 31.0921 53.7258 32.8948 53.4849 34.8619L54.8395 35.0278L56.1942 35.1937C56.4456 33.1411 56.5738 31.2461 56.6054 29.6933L55.2409 29.6655ZM54.8395 35.0278L53.4849 34.8619C53.0049 38.7811 52.0427 43.396 50.3521 47.2379L51.6013 47.7876L52.8504 48.3373C54.6904 44.156 55.6974 39.2496 56.1942 35.1938L54.8395 35.0278ZM51.6013 47.7876L50.3452 47.2538C48.4798 51.6431 46.138 55.2064 43.31 57.9236L44.2556 58.9077L45.2011 59.8918C48.3484 56.8679 50.88 52.974 52.8573 48.3214L51.6013 47.7876ZM44.2556 58.9077L43.31 57.9236C39.2523 61.8221 34.4455 63.4825 30.6719 64.1706L30.9167 65.5132L31.1615 66.8558C35.2717 66.1064 40.6373 64.2766 45.2011 59.8919L44.2556 58.9077ZM30.9167 65.5132L30.6719 64.1706C28.7838 64.5148 27.1468 64.6168 25.9798 64.6329L25.9987 65.9976L26.0176 67.3622C27.3049 67.3444 29.0964 67.2323 31.1615 66.8558L30.9167 65.5132ZM25.9987 65.9976L25.9799 64.6329C25.396 64.641 24.9286 64.6276 24.606 64.6119L24.5397 65.9751L24.4735 67.3382C24.848 67.3564 25.3724 67.3711 26.0176 67.3622L25.9987 65.9976ZM24.5397 65.9751L24.606 64.6119C24.4464 64.6042 24.3212 64.5956 24.2329 64.5889L24.1296 65.9497L24.0263 67.3105C24.134 67.3187 24.2845 67.3291 24.4735 67.3382L24.5397 65.9751ZM24.1296 65.9497L24.2329 64.5889C24.2051 64.5868 24.1786 64.5849 24.1616 64.5837C24.1524 64.583 24.1457 64.5825 24.1404 64.5821C24.1349 64.5817 24.1329 64.5815 24.133 64.5815L24.0124 65.9409L23.8918 67.3003C23.93 67.3037 24.0043 67.3089 24.0262 67.3105L24.1296 65.9497ZM24.0124 65.9409L24.1331 64.5815C24.1482 64.5828 24.159 64.5842 24.1567 64.5839C24.1556 64.5838 24.1558 64.5838 24.1532 64.5835C24.1514 64.5833 24.1482 64.5829 24.1445 64.5825C24.1408 64.582 24.1356 64.5814 24.1295 64.5807C24.1235 64.5801 24.1156 64.5793 24.1066 64.5784L23.9772 65.937L23.8478 67.2956C23.8352 67.2944 23.826 67.2933 23.8246 67.2932C23.8235 67.293 23.823 67.293 23.824 67.2931C23.8242 67.2931 23.8272 67.2935 23.8291 67.2937C23.8386 67.2949 23.8624 67.2977 23.8917 67.3003L24.0124 65.9409ZM23.9772 65.937L24.1064 64.5784C24.1387 64.5814 24.1674 64.5853 24.1918 64.5892C24.2161 64.5931 24.2371 64.5972 24.2535 64.6006C24.2699 64.604 24.2832 64.6071 24.2918 64.6091C24.3 64.6111 24.3065 64.6127 24.3068 64.6128C24.3081 64.6131 24.3062 64.6126 24.3055 64.6125C24.3042 64.6121 24.3015 64.6115 24.2981 64.6106C24.2916 64.609 24.2795 64.6061 24.2642 64.6028C24.2488 64.5994 24.2279 64.5951 24.2028 64.5909C24.1777 64.5866 24.1467 64.582 24.111 64.5783L23.9724 65.936L23.8337 67.2937C23.7984 67.2901 23.7677 67.2856 23.743 67.2814C23.7184 67.2772 23.6978 67.2729 23.6828 67.2697C23.668 67.2664 23.6562 67.2636 23.6501 67.2621C23.6469 67.2613 23.6444 67.2607 23.6433 67.2604C23.6428 67.2603 23.6411 67.2599 23.6426 67.2602C23.6434 67.2605 23.6502 67.2622 23.6588 67.2642C23.6679 67.2664 23.6816 67.2696 23.6984 67.273C23.7153 67.2766 23.7366 67.2807 23.7614 67.2846C23.7862 67.2886 23.8154 67.2925 23.8481 67.2956L23.9772 65.937ZM23.9724 65.936H22.6076V65.937H23.9724H25.3371V65.936H23.9724ZM23.9724 65.937L24.0997 64.5782C24.1106 64.5792 24.1191 64.5802 24.1232 64.5806C24.1271 64.5811 24.1303 64.5815 24.129 64.5813C24.1289 64.5813 24.1276 64.5811 24.1261 64.581C24.1246 64.5808 24.1222 64.5805 24.1194 64.5802C24.114 64.5796 24.1044 64.5785 24.0924 64.5774L23.9636 65.936L23.8347 67.2947C23.8241 67.2937 23.8159 67.2928 23.812 67.2923C23.8084 67.2919 23.8053 67.2916 23.8069 67.2917C23.8071 67.2918 23.8118 67.2923 23.8172 67.2929C23.8228 67.2936 23.8327 67.2947 23.845 67.2958L23.9724 65.937ZM23.9636 65.936V64.5713H23.9597V65.936V67.3008H23.9636V65.936ZM23.9597 65.936H25.3244V65.9351H23.9597H22.5949V65.936H23.9597ZM23.9597 65.9351L24.088 64.5763C18.7349 64.0707 13.2683 60.8622 10.1945 57.9249L9.25165 58.9116L8.30876 59.8983C11.7002 63.1392 17.7133 66.7159 23.8313 67.2938L23.9597 65.9351ZM9.25165 58.9116L10.1945 57.925C7.09901 54.9667 4.69011 50.5865 3.85629 46.084L2.51434 46.3325L1.1724 46.581C2.10988 51.6433 4.79584 56.5412 8.30875 59.8983L9.25165 58.9116ZM2.51434 46.3325L3.47937 47.2976L3.48035 47.2966L2.51532 46.3315L1.55029 45.3665L1.54931 45.3675L2.51434 46.3325ZM2.51532 46.3315L3.85207 46.0564C2.86994 41.2841 2.86869 36.5566 3.86062 32.2031L2.52997 31.8999L1.19931 31.5967C0.112551 36.3664 0.125634 41.4902 1.17857 46.6066L2.51532 46.3315ZM2.52997 31.8999L3.85398 32.2309L3.85691 32.2192L2.5329 31.8882L1.20889 31.5572L1.20596 31.5689L2.52997 31.8999ZM2.5329 31.8882L3.86159 32.1999C4.84617 28.0027 6.66017 24.3552 9.3032 21.2668L8.2663 20.3794L7.2294 19.492C4.28485 22.9328 2.28205 26.9818 1.20421 31.5765L2.5329 31.8882ZM8.2663 20.3794L9.28906 21.283L9.85937 20.6375L8.83661 19.7339L7.81385 18.8303L7.24354 19.4758L8.2663 20.3794ZM8.83661 19.7339L9.84633 20.6521C10.9407 19.4485 11.9142 18.5203 12.7648 17.8823L11.946 16.7905L11.1271 15.6987C10.0825 16.4822 8.97803 17.5498 7.82688 18.8157L8.83661 19.7339ZM11.946 16.7905L12.7648 17.8824C13.5835 17.2684 14.361 16.8682 15.065 16.8223L14.9763 15.4604L14.8876 14.0986C13.3703 14.1974 12.0622 14.9974 11.1272 15.6987L11.946 16.7905ZM14.9763 15.4604L15.095 16.82C15.4621 16.788 15.8124 16.8565 16.1273 17.0385L16.8102 15.8569L17.4932 14.6753C16.6473 14.1865 15.728 14.0249 14.8575 14.1009L14.9763 15.4604ZM16.8102 15.8569L16.1272 17.0385C16.4446 17.222 16.6957 17.5021 16.8932 17.8394L18.071 17.1499L19.2487 16.4604C18.8801 15.8308 18.3226 15.1549 17.4933 14.6754L16.8102 15.8569ZM18.071 17.1499L16.8932 17.8393C17.228 18.4113 17.4465 19.2157 17.57 20.219L18.9245 20.0522L20.279 19.8855C20.1365 18.728 19.8563 17.4982 19.2488 16.4605L18.071 17.1499ZM18.9245 20.0522L17.5674 20.197L17.6172 20.6638L18.9743 20.519L20.3314 20.3743L20.2816 19.9075L18.9245 20.0522ZM18.9743 20.519L17.6503 20.85L17.6513 20.854L18.9753 20.5229L20.2993 20.1919L20.2983 20.188L18.9743 20.519ZM18.9753 20.5229L17.6161 20.6465C17.6433 20.9459 17.6834 21.3846 17.7363 21.8074L19.0905 21.6382L20.4447 21.4689C20.3984 21.0979 20.362 20.7024 20.3344 20.3994L18.9753 20.5229ZM19.0905 21.6382L17.7363 21.8075C17.7625 22.0172 17.7915 22.2209 17.8231 22.3984L19.1667 22.1587L20.5102 21.919C20.4902 21.8066 20.468 21.6546 20.4447 21.4689L19.0905 21.6382ZM19.1667 22.1587L17.8309 22.4383L17.8748 22.6482L19.2106 22.3687L20.5464 22.0891L20.5025 21.8791L19.1667 22.1587ZM19.2106 22.3687L17.9143 22.7953L17.9397 22.8724L19.236 22.4458L20.5324 22.0192L20.507 21.942L19.2106 22.3687ZM19.236 22.4458L17.9073 22.7575L17.9259 22.8366L19.2546 22.5249L20.5833 22.2132L20.5647 22.1341L19.236 22.4458ZM19.2546 22.5249L17.9279 22.8452C18.1049 23.5781 18.3441 24.0757 18.6107 24.3905L19.652 23.5083L20.6934 22.6261C20.7562 22.7003 20.7567 22.7253 20.7236 22.6518C20.6932 22.5846 20.6392 22.4446 20.5812 22.2046L19.2546 22.5249ZM19.652 23.5083L19.5669 24.8704L19.5982 24.8724L19.6833 23.5103L19.7684 22.1482L19.7372 22.1462L19.652 23.5083ZM19.6833 23.5103L19.5093 24.8639L19.5776 24.8727L19.7516 23.519L19.9257 22.1654L19.8573 22.1566L19.6833 23.5103ZM19.7516 23.519L19.5888 24.874C20.1999 24.9475 20.9736 24.6613 21.9395 23.7601L21.0085 22.7622L20.0775 21.7643C19.7339 22.0849 19.5508 22.1757 19.5201 22.1894C19.4919 22.2019 19.6366 22.1306 19.9145 22.164L19.7516 23.519ZM21.0085 22.7622L22.0164 23.6823C22.683 22.9521 23.5946 21.7292 24.7554 19.988L23.6198 19.231L22.4843 18.4739C21.3402 20.19 20.5219 21.271 20.0005 21.8421L21.0085 22.7622ZM23.6198 19.231L24.7722 19.962C26.1602 17.7741 27.2624 16.1053 28.0778 14.9617L26.9665 14.1694L25.8552 13.3772C24.9965 14.5817 23.8629 16.3 22.4674 18.4999L23.6198 19.231ZM26.9665 14.1694L28.0928 14.9401C29.5137 12.8634 30.8884 11.131 32.2157 9.74836L31.2311 8.80322L30.2466 7.85808C28.7883 9.37715 27.3205 11.2352 25.8402 13.3988L26.9665 14.1694ZM31.2311 8.80322L32.2164 9.74756C33.481 8.42811 34.777 7.26995 36.1037 6.27491L35.2849 5.18311L34.466 4.0913C33.0088 5.18421 31.6026 6.44333 30.2458 7.85889L31.2311 8.80322ZM35.2849 5.18311L36.1081 6.2716C38.1401 4.73479 39.974 3.76174 41.6011 3.41308L41.3151 2.07861L41.0292 0.744148C38.8437 1.21246 36.6372 2.44918 34.4616 4.09461L35.2849 5.18311ZM41.3151 2.07861L41.5828 3.41687L41.6414 3.40515L41.3737 2.06689L41.1061 0.728638L41.0475 0.740357L41.3151 2.07861Z" fill="#726B66"/>
<path d="M42.0791 5.8147C42.1236 5.80843 42.1879 5.81257 42.3291 5.91138C42.4832 6.01946 42.7504 6.29612 43.04 6.94556C43.2214 7.41682 43.4129 8.58677 43.4668 10.7385L43.4687 10.7737C43.5722 13.1543 43.4702 16.1276 43.1494 19.7102C42.9806 21.5947 42.9833 23.2274 43.2382 24.5188C43.4731 25.7084 44.0323 27.1169 45.416 27.7649V27.7659C45.432 27.7739 45.4487 27.7806 45.4648 27.7883C45.4824 27.7962 45.4997 27.8061 45.5175 27.8137V27.8127C46.5972 28.307 47.7423 28.1176 48.6503 27.7981C49.4516 27.5161 50.3031 27.0518 51.1923 26.4612C51.2329 26.5973 51.2755 26.7559 51.3144 26.9407L51.3154 26.9485L51.3173 26.9573C51.3866 27.2729 51.4567 28.1605 51.4277 29.5862C51.3999 30.9523 51.2852 32.6714 51.0537 34.5618C50.5876 38.367 49.6633 42.7295 48.1015 46.2698L48.0957 46.2815L48.0908 46.2942C46.3259 50.4468 44.155 53.7125 41.6132 56.1545C38.0096 59.6169 33.7038 61.1251 30.2324 61.7581C28.5026 62.0734 27.0045 62.1663 25.9462 62.1809C25.4182 62.1882 25.0023 62.1758 24.7255 62.1624C24.5874 62.1556 24.484 62.1487 24.4189 62.1438C24.3866 62.1413 24.3635 62.1391 24.3505 62.1379C24.3455 62.1375 24.3418 62.1371 24.3398 62.137L24.3281 62.136C19.6591 61.6982 14.6783 58.8174 11.8876 56.1506C9.16667 53.5503 7.00633 49.6355 6.26558 45.636L6.26167 45.6155L6.25777 45.5959C5.33293 41.1256 5.34027 36.7453 6.24702 32.7571C7.20714 28.664 9.01303 25.1943 11.6533 22.3049L11.6562 22.301C12.7004 21.1524 13.5576 20.3483 14.2353 19.8401C14.5291 19.6197 14.7527 19.4832 14.9121 19.3987C14.9343 19.4676 14.9591 19.5476 14.9824 19.6399C15.0604 19.9496 15.128 20.3532 15.1757 20.8645V20.8655C15.2026 21.1605 15.2459 21.6386 15.3046 22.1086C15.3533 22.4978 15.4325 23.0539 15.5664 23.4924C15.796 24.4116 16.1618 25.3034 16.7724 26.0081C17.4478 26.7873 18.3578 27.2591 19.415 27.3147V27.3137C21.0663 27.4645 22.5151 26.5901 23.6728 25.4934L23.7177 25.4514L23.7587 25.4065C24.5732 24.5294 25.5924 23.1487 26.7949 21.345L26.8183 21.3079C28.2222 19.094 29.3115 17.4489 30.0937 16.3538L30.1044 16.3381L30.1152 16.3215C31.4834 14.3218 32.7741 12.7022 33.9834 11.4426L33.9843 11.4417C35.1668 10.2077 36.3636 9.13988 37.5732 8.23267L37.58 8.22778C39.4655 6.80093 40.9556 6.06405 42.0791 5.8147Z" fill="#BBAC99" stroke="#A69788" stroke-width="3.81498"/>
<path d="M25.381 39.1029C23.0322 39.4623 25.6055 32.1215 22.9984 31.6683C21.0886 31.1204 18.4242 33.9715 16.4417 36.015C14.4592 38.0585 12.7117 41.5878 12.5951 44.8758C12.5368 46.7148 12.8574 48.526 13.5568 50.3093C14.1979 51.8696 15.0429 53.2628 16.092 54.4889C16.6748 55.2133 17.4616 55.9099 18.4524 56.5787C19.7346 57.3589 21.1625 57.9161 22.7361 58.2505C26.1747 59.0307 29.3219 58.557 32.1777 56.8294C35.0335 55.1576 37.219 52.7334 38.7343 49.5569C40.0748 46.8263 40.8324 43.7612 41.0073 40.3618C41.1239 37.464 40.8616 34.7612 40.2205 32.2534C37.4176 20.1931 29.9551 38.4031 25.381 39.1029Z" fill="#EDE5D8"/>
</svg>
