<svg width="58" height="70" viewBox="0 0 58 70" fill="none" xmlns="http://www.w3.org/2000/svg">
<path d="M41.8738 3.06689C43.0194 2.85883 44.0995 3.14576 45.0164 3.7876C45.8276 4.35558 46.4236 5.16358 46.8699 6.06494L47.0525 6.45654L47.0642 6.48389L47.0759 6.51221C47.5403 7.67339 47.725 9.46946 47.78 11.6108L47.8113 12.6138C47.8607 15.014 47.7375 17.8309 47.449 21.0522C47.2925 22.7997 47.3295 24.0132 47.4812 24.7817C47.5288 25.0228 47.5796 25.1801 47.6189 25.2788C47.6843 25.264 47.7719 25.2409 47.8835 25.2017C48.3758 25.0284 49.0911 24.6469 50.0544 23.9624C50.5266 23.6222 51.1492 23.3063 51.8923 23.2671C52.604 23.2297 53.2389 23.4553 53.7498 23.8306L53.9607 24.0005L54.1257 24.1548C54.9219 24.9463 55.3167 26.0749 55.5427 27.1411C55.7174 27.937 55.7704 29.2221 55.741 30.6655C55.7103 32.1692 55.5858 34.0178 55.3396 36.0278C54.8512 40.0155 53.8667 44.776 52.1013 48.7876C50.1799 53.3086 47.7433 57.0371 44.7556 59.9077C40.445 64.0492 35.3586 65.7944 31.4167 66.5132C29.4404 66.8735 27.7258 66.9806 26.4988 66.9976C25.8845 67.0061 25.3884 66.992 25.0398 66.9751C24.8658 66.9666 24.7276 66.9571 24.6296 66.9497C24.5809 66.946 24.5411 66.9435 24.5125 66.9409C24.4985 66.9397 24.4863 66.9379 24.4773 66.937C24.4757 66.9369 24.4738 66.9363 24.4724 66.936V66.937C24.4698 66.9368 24.4663 66.9363 24.4636 66.936H24.4597V66.9351C18.7243 66.3933 12.9843 63.0007 9.75171 59.9116C6.44743 56.754 3.9001 52.1149 3.0144 47.3325L3.01538 47.3315C1.99776 42.387 1.99065 37.4616 3.03003 32.8999L3.03296 32.8882C4.06415 28.4921 5.97248 24.6441 8.76636 21.3794L9.33667 20.7339C10.4595 19.4991 11.4984 18.5013 12.446 17.7905C13.3229 17.1329 14.3657 16.5328 15.4763 16.4604C16.0951 16.4065 16.73 16.5215 17.3103 16.8569C17.8836 17.1885 18.2881 17.6665 18.571 18.1499C19.0421 18.9548 19.2916 19.9718 19.4246 21.0522L19.4744 21.519L19.4753 21.5229C19.5027 21.8242 19.5409 22.2411 19.5906 22.6382C19.6153 22.8361 19.6409 23.0137 19.6667 23.1587L19.7107 23.3687L19.7361 23.4458L19.7546 23.5249C19.9038 24.1427 20.0733 24.4154 20.1521 24.5083L20.1833 24.5103L20.2517 24.519C20.2835 24.5226 20.6722 24.5426 21.5085 23.7622C22.1025 23.1115 22.9674 21.9597 24.1199 20.231C25.5117 18.037 26.6295 16.3436 27.4666 15.1694C28.9172 13.0492 30.3384 11.2541 31.7312 9.80322C33.0419 8.43568 34.3929 7.2271 35.7849 6.18311C37.8887 4.59197 39.9089 3.4871 41.8152 3.07861L41.8738 3.06689Z" fill="#A69788"/>
<path d="M41.8738 3.06689L41.4717 0.853106C41.4586 0.855484 41.4456 0.857978 41.4325 0.860588L41.8738 3.06689ZM45.0164 3.7876L46.3068 1.94446L46.3066 1.94433L45.0164 3.7876ZM46.8699 6.06494L48.909 5.11401C48.9016 5.09814 48.8941 5.08236 48.8863 5.06667L46.8699 6.06494ZM47.0525 6.45654L49.1206 5.57022C49.1113 5.54854 49.1016 5.52699 49.0917 5.50561L47.0525 6.45654ZM47.0642 6.48389L49.1432 5.6236C49.1396 5.6149 49.136 5.60622 49.1323 5.59757L47.0642 6.48389ZM47.0759 6.51221L49.165 5.67668C49.1617 5.66841 49.1584 5.66015 49.155 5.65192L47.0759 6.51221ZM47.78 11.6108L45.5307 11.6686L45.5311 11.6809L47.78 11.6108ZM47.8113 12.6138L50.0608 12.5674C50.0606 12.5595 50.0604 12.5516 50.0602 12.5437L47.8113 12.6138ZM47.449 21.0522L45.2079 20.8516L45.2079 20.8516L47.449 21.0522ZM47.4812 24.7817L45.2738 25.2173L45.2738 25.2175L47.4812 24.7817ZM47.6189 25.2788L45.5284 26.1109C45.938 27.1399 47.0354 27.7178 48.1156 27.4733L47.6189 25.2788ZM47.8835 25.2017L48.6303 27.3241L48.6306 27.324L47.8835 25.2017ZM50.0544 23.9624L51.3576 25.7966C51.3617 25.7937 51.3657 25.7908 51.3697 25.7879L50.0544 23.9624ZM51.8923 23.2671L51.7744 21.0202L51.7737 21.0202L51.8923 23.2671ZM53.7498 23.8306L55.1612 22.0784C55.1352 22.0574 55.1088 22.037 55.0818 22.0173L53.7498 23.8306ZM53.9607 24.0005L55.4973 22.3569C55.4569 22.3192 55.4152 22.2829 55.3722 22.2483L53.9607 24.0005ZM54.1257 24.1548L55.7121 22.5592C55.6957 22.5429 55.6792 22.5269 55.6623 22.5112L54.1257 24.1548ZM55.5427 27.1411L53.3416 27.6078C53.3428 27.613 53.3439 27.6182 53.345 27.6234L55.5427 27.1411ZM55.741 30.6655L57.9905 30.7113L57.9905 30.7113L55.741 30.6655ZM55.3396 36.0278L57.5729 36.3014L57.5729 36.3014L55.3396 36.0278ZM52.1013 48.7876L50.0419 47.8813C50.0381 47.89 50.0343 47.8988 50.0306 47.9075L52.1013 48.7876ZM44.7556 59.9077L46.3145 61.5302L46.3145 61.5302L44.7556 59.9077ZM31.4167 66.5132L31.8203 68.7267L31.8204 68.7267L31.4167 66.5132ZM26.4988 66.9976L26.5299 69.2473L26.5299 69.2473L26.4988 66.9976ZM25.0398 66.9751L24.9306 69.2224L24.9306 69.2224L25.0398 66.9751ZM24.6296 66.9497L24.4593 69.1932L24.4593 69.1933L24.6296 66.9497ZM24.5125 66.9409L24.3134 69.1821L24.3143 69.1822L24.5125 66.9409ZM24.4773 66.937L24.6962 64.6977L24.6893 64.697L24.4773 66.937ZM24.4724 66.936L24.8191 64.7129C24.1697 64.6116 23.5084 64.7994 23.0091 65.2269C22.5098 65.6543 22.2224 66.2788 22.2224 66.936H24.4724ZM24.4724 66.937L24.2624 69.1772C24.8929 69.2363 25.5191 69.027 25.9873 68.6006C26.4555 68.1742 26.7224 67.5703 26.7224 66.937H24.4724ZM24.4636 66.936L24.6872 64.6972C24.6129 64.6898 24.5383 64.686 24.4636 64.686L24.4636 66.936ZM24.4597 66.936H22.2097C22.2097 68.1787 23.2171 69.186 24.4597 69.186V66.936ZM24.4597 66.9351H26.7097C26.7097 65.7744 25.8268 64.8042 24.6713 64.695L24.4597 66.9351ZM9.75171 59.9116L8.19723 61.5383L8.19726 61.5383L9.75171 59.9116ZM3.0144 47.3325L1.42341 45.7415C0.899498 46.2654 0.6671 47.0137 0.802025 47.7423L3.0144 47.3325ZM3.01538 47.3315L4.60637 48.9225C5.14147 48.3874 5.37174 47.6192 5.21919 46.878L3.01538 47.3315ZM3.03003 32.8999L0.847209 32.3542C0.843397 32.3694 0.839745 32.3847 0.836253 32.4001L3.03003 32.8999ZM3.03296 32.8882L5.21578 33.4339C5.21843 33.4233 5.221 33.4127 5.2235 33.402L3.03296 32.8882ZM8.76636 21.3794L7.08019 19.8896C7.07235 19.8985 7.06458 19.9075 7.05688 19.9165L8.76636 21.3794ZM9.33667 20.7339L7.67199 19.2202C7.66477 19.2281 7.65761 19.2361 7.6505 19.2441L9.33667 20.7339ZM12.446 17.7905L11.0961 15.9905L11.096 15.9905L12.446 17.7905ZM15.4763 16.4604L15.6225 18.7057C15.639 18.7046 15.6554 18.7034 15.6718 18.7019L15.4763 16.4604ZM17.3103 16.8569L18.4367 14.9092L18.4363 14.909L17.3103 16.8569ZM18.571 18.1499L20.5129 17.0134L20.5128 17.0132L18.571 18.1499ZM19.4246 21.0522L21.6619 20.8135C21.6606 20.8015 21.6592 20.7894 21.6577 20.7774L19.4246 21.0522ZM19.4744 21.519L17.2371 21.7578C17.2481 21.8612 17.2663 21.9638 17.2915 22.0647L19.4744 21.519ZM19.4753 21.5229L21.7161 21.3192C21.7056 21.2039 21.6862 21.0896 21.6582 20.9772L19.4753 21.5229ZM19.5906 22.6382L17.358 22.9173L17.358 22.9173L19.5906 22.6382ZM19.6667 23.1587L17.4518 23.5541C17.4557 23.576 17.4599 23.5978 17.4645 23.6196L19.6667 23.1587ZM19.7107 23.3687L17.5084 23.8296C17.5256 23.9116 17.5473 23.9925 17.5735 24.072L19.7107 23.3687ZM19.7361 23.4458L21.9266 22.932C21.9116 22.868 21.8938 22.8048 21.8733 22.7424L19.7361 23.4458ZM19.7546 23.5249L17.5641 24.0387C17.5652 24.0435 17.5663 24.0482 17.5675 24.053L19.7546 23.5249ZM20.1521 24.5083L18.4363 25.9638C18.8321 26.4305 19.401 26.7157 20.0117 26.7539L20.1521 24.5083ZM20.1833 24.5103L20.4703 22.2786C20.4216 22.2724 20.3727 22.2677 20.3237 22.2646L20.1833 24.5103ZM20.2517 24.519L19.9648 26.7507C19.9764 26.7522 19.9881 26.7536 19.9998 26.7549L20.2517 24.519ZM21.5085 23.7622L23.0435 25.4074C23.0874 25.3663 23.1297 25.3236 23.1703 25.2792L21.5085 23.7622ZM24.1199 20.231L25.992 21.479C26.0014 21.4649 26.0107 21.4506 26.0198 21.4362L24.1199 20.231ZM27.4666 15.1694L29.2986 16.4756C29.307 16.4638 29.3153 16.4519 29.3235 16.44L27.4666 15.1694ZM31.7312 9.80322L33.3543 11.3614L33.3556 11.3601L31.7312 9.80322ZM35.7849 6.18311L37.1349 7.98312L37.1422 7.97765L35.7849 6.18311ZM41.8152 3.07861L41.3739 0.872307C41.3639 0.874322 41.3538 0.876405 41.3437 0.878558L41.8152 3.07861ZM41.8738 3.06689L42.2758 5.28068C42.772 5.19057 43.2503 5.29781 43.7261 5.63087L45.0164 3.7876L46.3066 1.94433C44.9486 0.99372 43.2669 0.527097 41.4717 0.853106L41.8738 3.06689ZM45.0164 3.7876L43.7259 5.63073C44.1372 5.91874 44.5172 6.38407 44.8535 7.06321L46.8699 6.06494L48.8863 5.06667C48.33 3.94309 47.5179 2.79242 46.3068 1.94446L45.0164 3.7876ZM46.8699 6.06494L44.8307 7.01588L45.0133 7.40748L47.0525 6.45654L49.0917 5.50561L48.909 5.11401L46.8699 6.06494ZM47.0525 6.45654L44.9844 7.34286L44.9961 7.37021L47.0642 6.48389L49.1323 5.59757L49.1206 5.57022L47.0525 6.45654ZM47.0642 6.48389L44.9852 7.34418L44.9969 7.3725L47.0759 6.51221L49.155 5.65192L49.1432 5.6236L47.0642 6.48389ZM47.0759 6.51221L44.9868 7.34773C45.2852 8.09375 45.4755 9.51841 45.5308 11.6686L47.78 11.6108L50.0293 11.553C49.9745 9.42051 49.7955 7.25302 49.165 5.67668L47.0759 6.51221ZM47.78 11.6108L45.5311 11.6809L45.5624 12.6838L47.8113 12.6138L50.0602 12.5437L50.0289 11.5408L47.78 11.6108ZM47.8113 12.6138L45.5618 12.6601C45.609 14.9537 45.4916 17.684 45.2079 20.8516L47.449 21.0522L49.69 21.2529C49.9833 17.9778 50.1124 15.0743 50.0608 12.5674L47.8113 12.6138ZM47.449 21.0522L45.2079 20.8516C45.0443 22.6788 45.0611 24.1398 45.2738 25.2173L47.4812 24.7817L49.6886 24.3461C49.598 23.8866 49.5407 22.9205 49.69 21.2529L47.449 21.0522ZM47.4812 24.7817L45.2738 25.2175C45.3443 25.5744 45.4312 25.8667 45.5284 26.1109L47.6189 25.2788L49.7094 24.4467C49.728 24.4935 49.7133 24.4711 49.6886 24.346L47.4812 24.7817ZM47.6189 25.2788L48.1156 27.4733C48.2558 27.4416 48.4278 27.3954 48.6303 27.3241L47.8835 25.2017L47.1368 23.0792C47.125 23.0833 47.1189 23.0851 47.1182 23.0853C47.1177 23.0854 47.118 23.0853 47.119 23.0851C47.1201 23.0848 47.1212 23.0845 47.1222 23.0843L47.6189 25.2788ZM47.8835 25.2017L48.6306 27.324C49.4052 27.0514 50.3161 26.5366 51.3576 25.7966L50.0544 23.9624L48.7513 22.1282C47.8661 22.7571 47.3463 23.0054 47.1365 23.0793L47.8835 25.2017ZM50.0544 23.9624L51.3697 25.7879C51.6334 25.598 51.8452 25.5227 52.011 25.514L51.8923 23.2671L51.7737 21.0202C50.4532 21.0899 49.4199 21.6464 48.7392 22.1369L50.0544 23.9624ZM51.8923 23.2671L52.0102 25.514C52.0904 25.5098 52.1573 25.5202 52.2173 25.5392C52.2795 25.5588 52.3472 25.5921 52.4177 25.6439L53.7498 23.8306L55.0818 22.0173C54.1942 21.3652 53.0548 20.953 51.7744 21.0202L51.8923 23.2671ZM53.7498 23.8306L52.3383 25.5828L52.5492 25.7527L53.9607 24.0005L55.3722 22.2483L55.1612 22.0784L53.7498 23.8306ZM53.9607 24.0005L52.4241 25.6441L52.5891 25.7984L54.1257 24.1548L55.6623 22.5112L55.4973 22.3569L53.9607 24.0005ZM54.1257 24.1548L52.5394 25.7504C52.8654 26.0745 53.1443 26.6771 53.3416 27.6078L55.5427 27.1411L57.7438 26.6745C57.489 25.4728 56.9783 23.818 55.7121 22.5592L54.1257 24.1548ZM55.5427 27.1411L53.345 27.6234C53.4578 28.1372 53.5206 29.1894 53.4914 30.6197L55.741 30.6655L57.9905 30.7113C58.0202 29.2548 57.977 27.7369 57.7404 26.6588L55.5427 27.1411ZM55.741 30.6655L53.4914 30.6197C53.4625 32.0422 53.3438 33.8147 53.1063 35.7543L55.3396 36.0278L57.5729 36.3014C57.8277 34.2209 57.9582 32.2961 57.9905 30.7113L55.741 30.6655ZM55.3396 36.0278L53.1063 35.7543C52.6317 39.6293 51.6841 44.1495 50.0419 47.8813L52.1013 48.7876L54.1607 49.6939C56.0492 45.4024 57.0707 40.4016 57.5729 36.3014L55.3396 36.0278ZM52.1013 48.7876L50.0306 47.9075C48.2014 52.2115 45.9213 55.6675 43.1967 58.2852L44.7556 59.9077L46.3145 61.5302C49.5653 58.4068 52.1584 54.4056 54.1721 49.6677L52.1013 48.7876ZM44.7556 59.9077L43.1968 58.2852C39.3033 62.0259 34.6776 63.6315 31.0131 64.2997L31.4167 66.5132L31.8204 68.7267C36.0396 67.9573 41.5866 66.0726 46.3145 61.5302L44.7556 59.9077ZM31.4167 66.5132L31.0132 64.2997C29.1827 64.6334 27.5955 64.7321 26.4676 64.7478L26.4988 66.9976L26.5299 69.2473C27.8562 69.229 29.698 69.1136 31.8203 68.7267L31.4167 66.5132ZM26.4988 66.9976L26.4677 64.7478C25.904 64.7556 25.4548 64.7426 25.149 64.7277L25.0398 66.9751L24.9306 69.2224C25.3219 69.2415 25.865 69.2565 26.5299 69.2473L26.4988 66.9976ZM25.0398 66.9751L25.149 64.7277C24.9993 64.7205 24.8819 64.7124 24.8 64.7062L24.6296 66.9497L24.4593 69.1933C24.5733 69.2019 24.7323 69.2128 24.9306 69.2224L25.0398 66.9751ZM24.6296 66.9497L24.8 64.7062C24.7702 64.7039 24.7411 64.7018 24.7257 64.7007C24.7167 64.7001 24.7115 64.6997 24.7081 64.6994C24.7045 64.6992 24.706 64.6993 24.7106 64.6997L24.5125 66.9409L24.3143 69.1822C24.349 69.1852 24.383 69.1877 24.4013 69.189C24.4252 69.1907 24.4403 69.1918 24.4593 69.1932L24.6296 66.9497ZM24.5125 66.9409L24.7115 64.6997C24.7265 64.7011 24.7388 64.7024 24.7472 64.7033C24.7554 64.7042 24.7612 64.7049 24.7616 64.7049C24.7618 64.7049 24.7617 64.7049 24.7613 64.7049C24.7611 64.7049 24.7608 64.7048 24.7605 64.7048C24.7601 64.7047 24.7597 64.7047 24.7592 64.7046C24.7575 64.7044 24.7535 64.7039 24.7488 64.7034C24.7441 64.7028 24.7371 64.702 24.7288 64.7011C24.7204 64.7002 24.7093 64.699 24.6962 64.6977L24.4773 66.937L24.2584 69.1763C24.2382 69.1744 24.2232 69.1726 24.2204 69.1723C24.2184 69.172 24.2171 69.1719 24.2182 69.172C24.2184 69.172 24.2217 69.1724 24.2244 69.1727C24.2364 69.1742 24.2708 69.1783 24.3134 69.1821L24.5125 66.9409ZM24.4773 66.937L24.6893 64.697C24.7851 64.7061 24.8609 64.7196 24.9027 64.7276C24.9454 64.7359 24.9785 64.7437 24.9859 64.7454C24.9883 64.7459 24.9955 64.7476 24.9896 64.7462C24.9875 64.7457 24.9786 64.7436 24.9672 64.7411C24.9557 64.7385 24.937 64.7344 24.9139 64.7298C24.891 64.7252 24.8584 64.719 24.8191 64.7129L24.4724 66.936L24.1257 69.1592C24.0868 69.1531 24.0545 69.147 24.032 69.1425C24.0093 69.138 23.991 69.1339 23.9799 69.1314C23.9689 69.129 23.9604 69.127 23.9587 69.1266C23.9532 69.1253 23.9609 69.1271 23.9636 69.1277C23.9719 69.1296 24.0059 69.1376 24.0495 69.146C24.0921 69.1542 24.1687 69.1679 24.2653 69.177L24.4773 66.937ZM24.4724 66.936H22.2224V66.937H24.4724H26.7224V66.936H24.4724ZM24.4724 66.937L24.6824 64.6968C24.6915 64.6977 24.6993 64.6985 24.7051 64.6991C24.711 64.6997 24.7159 64.7002 24.7194 64.7006C24.7229 64.701 24.7257 64.7013 24.7274 64.7015C24.7282 64.7016 24.7289 64.7017 24.7293 64.7018C24.7297 64.7018 24.73 64.7018 24.73 64.7018C24.7306 64.7019 24.7289 64.7017 24.7278 64.7016C24.7264 64.7014 24.7238 64.7011 24.7206 64.7007C24.7174 64.7004 24.7129 64.6999 24.7076 64.6993C24.7023 64.6987 24.6954 64.698 24.6872 64.6972L24.4636 66.936L24.24 69.1749C24.2326 69.1742 24.2263 69.1735 24.2217 69.173C24.2171 69.1725 24.2134 69.1721 24.2109 69.1718C24.2085 69.1715 24.2066 69.1713 24.2059 69.1712C24.2056 69.1712 24.2047 69.1711 24.206 69.1712C24.2069 69.1713 24.2134 69.1721 24.2212 69.173C24.2255 69.1734 24.2311 69.1741 24.2377 69.1747C24.2442 69.1754 24.2526 69.1763 24.2624 69.1772L24.4724 66.937ZM24.4636 66.936V64.686H24.4597V66.936V69.186H24.4636V66.936ZM24.4597 66.936H26.7097V66.9351H24.4597H22.2097V66.936H24.4597ZM24.4597 66.9351L24.6713 64.695C19.5664 64.2128 14.2769 61.1237 11.3062 58.2849L9.75171 59.9116L8.19726 61.5383C11.6918 64.8776 17.8822 68.5738 24.2481 69.1751L24.4597 66.9351ZM9.75171 59.9116L11.3062 58.2849C8.346 55.4561 6.02704 51.2438 5.22678 46.9228L3.0144 47.3325L0.802025 47.7423C1.77317 52.986 4.54886 58.0519 8.19723 61.5383L9.75171 59.9116ZM3.0144 47.3325L4.60539 48.9235L4.60637 48.9225L3.01538 47.3315L1.42439 45.7406L1.42341 45.7415L3.0144 47.3325ZM3.01538 47.3315L5.21919 46.878C4.25995 42.2171 4.26259 37.6184 5.22381 33.3997L3.03003 32.8999L0.836253 32.4001C-0.281291 37.3048 -0.264437 42.5569 0.811569 47.7851L3.01538 47.3315ZM3.03003 32.8999L5.21285 33.4456L5.21578 33.4339L3.03296 32.8882L0.850138 32.3425L0.847209 32.3542L3.03003 32.8999ZM3.03296 32.8882L5.2235 33.402C6.17781 29.3337 7.93049 25.8166 10.4758 22.8423L8.76636 21.3794L7.05688 19.9165C4.01446 23.4716 1.95048 27.6505 0.842417 32.3743L3.03296 32.8882ZM8.76636 21.3794L10.4525 22.8691L11.0228 22.2236L9.33667 20.7339L7.6505 19.2441L7.08019 19.8896L8.76636 21.3794ZM9.33667 20.7339L11.0014 22.2476C12.0774 21.0643 13.0083 20.1813 13.7961 19.5905L12.446 17.7905L11.096 15.9905C9.98852 16.8212 8.84159 17.9339 7.67199 19.2202L9.33667 20.7339ZM12.446 17.7905L13.796 19.5906C14.577 19.0049 15.1824 18.7344 15.6225 18.7057L15.4763 16.4604L15.3301 14.2152C13.549 14.3312 12.0689 15.2609 11.0961 15.9905L12.446 17.7905ZM15.4763 16.4604L15.6718 18.7019C15.8761 18.6841 16.0419 18.7226 16.1843 18.8049L17.3103 16.8569L18.4363 14.909C17.4181 14.3204 16.314 14.1288 15.2808 14.219L15.4763 16.4604ZM17.3103 16.8569L16.1839 18.8047C16.3357 18.8925 16.4876 19.0445 16.6293 19.2866L18.571 18.1499L20.5128 17.0132C20.0886 16.2884 19.4315 15.4845 18.4367 14.9092L17.3103 16.8569ZM18.571 18.1499L16.6292 19.2864C16.8756 19.7075 17.0741 20.3741 17.1914 21.3271L19.4246 21.0522L21.6577 20.7774C21.5091 19.5695 21.2086 18.2022 20.5129 17.0134L18.571 18.1499ZM19.4246 21.0522L17.1873 21.291L17.2371 21.7578L19.4744 21.519L21.7117 21.2803L21.6619 20.8135L19.4246 21.0522ZM19.4744 21.519L17.2915 22.0647L17.2925 22.0687L19.4753 21.5229L21.6582 20.9772L21.6572 20.9733L19.4744 21.519ZM19.4753 21.5229L17.2346 21.7267C17.2617 22.0249 17.303 22.4775 17.358 22.9173L19.5906 22.6382L21.8232 22.3591C21.7789 22.0048 21.7438 21.6236 21.7161 21.3192L19.4753 21.5229ZM19.5906 22.6382L17.358 22.9173C17.3852 23.1348 17.4163 23.3552 17.4518 23.5541L19.6667 23.1587L21.8817 22.7633C21.8655 22.6722 21.8455 22.5373 21.8232 22.359L19.5906 22.6382ZM19.6667 23.1587L17.4645 23.6196L17.5084 23.8296L19.7107 23.3687L21.913 22.9077L21.869 22.6977L19.6667 23.1587ZM19.7107 23.3687L17.5735 24.072L17.5989 24.1492L19.7361 23.4458L21.8733 22.7424L21.8479 22.6653L19.7107 23.3687ZM19.7361 23.4458L17.5455 23.9596L17.5641 24.0387L19.7546 23.5249L21.9452 23.0111L21.9266 22.932L19.7361 23.4458ZM19.7546 23.5249L17.5675 24.053C17.7625 24.8605 18.0469 25.5047 18.4363 25.9638L20.1521 24.5083L21.8679 23.0528C21.9042 23.0956 21.9322 23.1327 21.9529 23.1618C21.9739 23.1914 21.9898 23.2162 22.0012 23.235C22.0238 23.2722 22.0323 23.2918 22.0305 23.2878C22.0265 23.2789 21.9891 23.1926 21.9418 22.9968L19.7546 23.5249ZM20.1521 24.5083L20.0117 26.7539L20.043 26.7559L20.1833 24.5103L20.3237 22.2646L20.2925 22.2627L20.1521 24.5083ZM20.1833 24.5103L19.8964 26.7419L19.9648 26.7507L20.2517 24.519L20.5386 22.2874L20.4703 22.2786L20.1833 24.5103ZM20.2517 24.519L19.9998 26.7549C20.9815 26.8655 21.9989 26.3819 23.0435 25.4074L21.5085 23.7622L19.9736 22.1171C19.6814 22.3897 19.5784 22.4171 19.6588 22.3811C19.7444 22.3428 20.0445 22.2315 20.5036 22.2832L20.2517 24.519ZM21.5085 23.7622L23.1703 25.2792C23.884 24.4973 24.8257 23.2284 25.992 21.479L24.1199 20.231L22.2478 18.9829C21.109 20.691 20.321 21.7258 19.8468 22.2453L21.5085 23.7622ZM24.1199 20.231L26.0198 21.4362C27.4053 19.2521 28.4973 17.5995 29.2986 16.4756L27.4666 15.1694L25.6345 13.8633C24.7616 15.0876 23.618 16.8218 22.2199 19.0257L24.1199 20.231ZM27.4666 15.1694L29.3235 16.44C30.7252 14.3914 32.0695 12.6998 33.3543 11.3614L31.7312 9.80322L30.1081 8.24503C28.6073 9.80839 27.1093 11.707 25.6096 13.8989L27.4666 15.1694ZM31.7312 9.80322L33.3556 11.3601C34.5904 10.0718 35.8505 8.94643 37.1349 7.98311L35.7849 6.18311L34.4349 4.3831C32.9353 5.50778 31.4934 6.79959 30.1068 8.24636L31.7312 9.80322ZM35.7849 6.18311L37.1422 7.97765C39.1276 6.47605 40.8406 5.58853 42.2866 5.27867L41.8152 3.07861L41.3437 0.878558C38.9772 1.38567 36.6498 2.7079 34.4277 4.38856L35.7849 6.18311ZM41.8152 3.07861L42.2564 5.28492L42.315 5.2732L41.8738 3.06689L41.4325 0.860588L41.3739 0.872307L41.8152 3.07861Z" fill="#726B66"/>
<path d="M42.5787 6.81421C42.6233 6.80794 42.6876 6.81208 42.8287 6.91089C42.9829 7.01897 43.25 7.29563 43.5397 7.94507C43.7211 8.41633 43.9126 9.58629 43.9664 11.738L43.9684 11.7732C44.0719 14.1538 43.9699 17.1271 43.649 20.7097C43.4803 22.5942 43.483 24.2269 43.7379 25.5183C43.9728 26.7079 44.532 28.1164 45.9156 28.7644V28.7654C45.9317 28.7734 45.9484 28.7801 45.9645 28.7878C45.9821 28.7957 45.9994 28.8056 46.0172 28.8132V28.8123C47.0969 29.3065 48.242 29.1171 49.15 28.7976C49.9513 28.5156 50.8027 28.0513 51.692 27.4607C51.7326 27.5968 51.7752 27.7554 51.8141 27.9402L51.8151 27.948L51.817 27.9568C51.8862 28.2724 51.9564 29.16 51.9274 30.5857C51.8995 31.9518 51.7849 33.6709 51.5533 35.5613C51.0873 39.3665 50.163 43.729 48.6012 47.2693L48.5953 47.281L48.5905 47.2937C46.8256 51.4463 44.6546 54.712 42.1129 57.1541C38.5093 60.6164 34.2035 62.1246 30.7321 62.7576C29.0023 63.0729 27.5042 63.1658 26.4459 63.1804C25.9179 63.1877 25.502 63.1753 25.2252 63.1619C25.0871 63.1552 24.9836 63.1482 24.9186 63.1433C24.8862 63.1409 24.8632 63.1386 24.8502 63.1375C24.8452 63.137 24.8414 63.1367 24.8395 63.1365L24.8278 63.1355C20.1588 62.6977 15.178 59.8169 12.3873 57.1501C9.66635 54.5498 7.50601 50.635 6.76526 46.6355L6.76135 46.615L6.75745 46.5955C5.83261 42.1251 5.83995 37.7448 6.7467 33.7566C7.70682 29.6635 9.51271 26.1938 12.153 23.3044L12.1559 23.3005C13.2001 22.1519 14.0573 21.3479 14.735 20.8396C15.0288 20.6192 15.2523 20.4827 15.4117 20.3982C15.434 20.4671 15.4588 20.5471 15.4821 20.6394C15.5601 20.9491 15.6276 21.3528 15.6754 21.864V21.865C15.7022 22.16 15.7456 22.6381 15.8043 23.1082C15.853 23.4973 15.9321 24.0534 16.066 24.4919C16.2957 25.4111 16.6615 26.3029 17.2721 27.0076C17.9474 27.7868 18.8575 28.2586 19.9147 28.3142V28.3132C21.566 28.4641 23.0148 27.5896 24.1725 26.4929L24.2174 26.4509L24.2584 26.406C25.0728 25.5289 26.092 24.1482 27.2946 22.3445L27.318 22.3074C28.7219 20.0935 29.8112 18.4484 30.5934 17.3533L30.6041 17.3376L30.6149 17.321C31.9831 15.3213 33.2738 13.7018 34.483 12.4421L34.484 12.4412C35.6665 11.2072 36.8633 10.1394 38.0729 9.23218L38.0797 9.22729C39.9652 7.80044 41.4553 7.06356 42.5787 6.81421Z" fill="#BBAC99" stroke="#A69788" stroke-width="3.81498"/>
<path d="M25.8807 40.1024C23.5319 40.4618 26.1052 33.121 23.498 32.6678C21.5883 32.12 18.9239 34.9711 16.9414 37.0145C14.9589 39.058 13.2114 42.5873 13.0948 45.8753C13.0365 47.7143 13.3571 49.5255 14.0564 51.3088C14.6975 52.8692 15.5426 54.2624 16.5917 55.4884C17.1745 56.2128 17.9613 56.9094 18.9521 57.5782C20.2343 58.3584 21.6622 58.9156 23.2358 59.25C26.6744 60.0302 29.8216 59.5565 32.6773 57.829C35.5331 56.1571 37.7187 53.7329 39.234 50.5564C40.5745 47.8258 41.3321 44.7607 41.507 41.3613C41.6235 38.4635 41.3613 35.7607 40.7202 33.2529C37.9173 21.1926 30.4547 39.4026 25.8807 40.1024Z" fill="#EDE5D8"/>
</svg>
