<svg width="59" height="70" viewBox="0 0 59 70" fill="none" xmlns="http://www.w3.org/2000/svg">
<path d="M42.4925 2.59358C43.6869 2.37668 44.8123 2.67645 45.764 3.34261C46.6064 3.93235 47.2215 4.76801 47.679 5.69221L47.8655 6.09261L47.8909 6.15315C48.3723 7.35665 48.5581 9.20705 48.6126 11.3866H48.6116C48.7238 14.0219 48.6077 17.2037 48.2757 20.911C48.118 22.6725 48.1571 23.8857 48.3069 24.6453C48.3391 24.8084 48.3735 24.9309 48.4026 25.0213C48.4449 25.009 48.4944 24.9947 48.5491 24.9754C48.9707 24.827 49.5688 24.5191 50.3607 23.9832L50.7122 23.7391C51.2013 23.3868 51.8537 23.0538 52.637 23.0125C53.4958 22.9675 54.2466 23.2862 54.8167 23.785C55.7703 24.6194 56.2165 25.8827 56.4612 27.0448H56.4603C56.6374 27.8662 56.689 29.1709 56.6595 30.6209C56.6284 32.1453 56.5025 34.018 56.2532 36.0535C55.7588 40.0904 54.761 44.9163 52.97 48.9871L52.971 48.9881C51.0234 53.5706 48.5509 57.3552 45.5159 60.2713C41.1346 64.4808 35.9658 66.2518 31.9651 66.9813C29.9589 67.347 28.219 67.4562 26.973 67.4735C26.3491 67.4821 25.8453 67.4682 25.4905 67.451C25.3135 67.4424 25.1727 67.4332 25.0726 67.4256C25.0227 67.4218 24.982 67.4175 24.9525 67.4149C24.938 67.4136 24.9257 67.4128 24.9163 67.4119C24.9144 67.4118 24.9122 67.4112 24.9105 67.411C19.0729 66.8636 13.2393 63.4143 9.95441 60.2752C6.59465 57.0646 4.0059 52.3507 3.10577 47.4901L3.10675 47.4891C2.07534 42.4755 2.06845 37.4783 3.12335 32.8485L3.12628 32.8358C4.2429 28.076 6.37334 23.946 9.52863 20.493C10.6662 19.2419 11.7229 18.2269 12.6898 17.5018C13.5691 16.8424 14.6304 16.2249 15.7728 16.1356V16.1346C16.4356 16.0684 17.1205 16.1884 17.7454 16.5496C18.3485 16.8983 18.7717 17.399 19.0657 17.9012C19.622 18.8515 19.8746 20.0782 19.9935 21.3446H19.9944L19.9954 21.3543L19.9964 21.3631C20.0241 21.6677 20.0618 22.0872 20.1116 22.4862C20.1365 22.6851 20.1631 22.8629 20.1888 23.0067L20.2278 23.202L20.2552 23.284L20.2757 23.369C20.4051 23.9051 20.549 24.1664 20.6243 24.2733L20.6712 24.2791C20.675 24.2796 20.6921 24.2816 20.7278 24.2752C20.7673 24.2681 20.8374 24.2498 20.9398 24.203C21.147 24.1081 21.4466 23.9124 21.8372 23.5487C22.4307 22.8975 23.3005 21.7415 24.4622 19.9989C25.8812 17.762 27.0201 16.0379 27.8704 14.8475C29.3314 12.7152 30.7638 10.9054 32.1702 9.44026C33.4995 8.05335 34.8703 6.82637 36.2835 5.76643C38.4167 4.1531 40.4764 3.02474 42.429 2.60628L42.4603 2.59944L42.4925 2.59358Z" fill="#B64600"/>
<path d="M42.4925 2.59358L42.0815 0.330593L42.0811 0.330681L42.4925 2.59358ZM45.764 3.34261L47.083 1.45842L47.0829 1.45837L45.764 3.34261ZM47.679 5.69221L49.7639 4.72097C49.7562 4.70449 49.7483 4.6881 49.7403 4.6718L47.679 5.69221ZM47.8655 6.09261L49.9866 5.20313C49.9751 5.17564 49.963 5.14838 49.9504 5.12136L47.8655 6.09261ZM47.8909 6.15315L50.0264 5.29896C50.0217 5.28716 50.0169 5.2754 50.012 5.26368L47.8909 6.15315ZM48.6126 11.3866V13.6866C49.2326 13.6866 49.8263 13.4363 50.2592 12.9924C50.692 12.5486 50.9274 11.9488 50.9119 11.3291L48.6126 11.3866ZM48.6116 11.3866V9.08655C47.9847 9.08655 47.3849 9.3425 46.9511 9.79516C46.5173 10.2478 46.2871 10.8579 46.3137 11.4843L48.6116 11.3866ZM48.2757 20.911L45.9849 20.7058L45.9849 20.7059L48.2757 20.911ZM48.3069 24.6453L46.0504 25.0905L46.0505 25.0907L48.3069 24.6453ZM48.4026 25.0213L46.2139 25.7281C46.5964 26.9123 47.8512 27.5775 49.0459 27.2295L48.4026 25.0213ZM48.5491 24.9754L49.3125 27.145L49.3132 27.1448L48.5491 24.9754ZM50.3607 23.9832L51.6497 25.8881C51.6573 25.8829 51.665 25.8777 51.6726 25.8724L50.3607 23.9832ZM50.7122 23.7391L52.0241 25.6282C52.035 25.6207 52.0457 25.6131 52.0564 25.6054L50.7122 23.7391ZM52.637 23.0125L52.5165 20.7157L52.5161 20.7157L52.637 23.0125ZM54.8167 23.785L56.3313 22.0541L56.3311 22.0539L54.8167 23.785ZM56.4612 27.0448V29.3448C57.1544 29.3448 57.8106 29.0321 58.2473 28.4939C58.684 27.9556 58.8547 27.2491 58.7119 26.5708L56.4612 27.0448ZM56.4603 27.0448V24.7448C55.7651 24.7448 55.1073 25.0591 54.6707 25.6C54.234 26.1408 54.0654 26.8502 54.212 27.5297L56.4603 27.0448ZM56.6595 30.6209L58.959 30.6678V30.6677L56.6595 30.6209ZM56.2532 36.0535L58.5362 36.3332L58.5362 36.3331L56.2532 36.0535ZM52.97 48.9871L50.8648 48.0609C50.4828 48.9291 50.673 49.9428 51.3437 50.6135L52.97 48.9871ZM52.971 48.9881L55.0878 49.8877C55.4546 49.0245 55.2606 48.025 54.5974 47.3618L52.971 48.9881ZM45.5159 60.2713L47.1094 61.9299L47.1095 61.9298L45.5159 60.2713ZM31.9651 66.9813L32.3777 69.244L32.3777 69.244L31.9651 66.9813ZM26.973 67.4735L27.0048 69.7732H27.0048L26.973 67.4735ZM25.4905 67.451L25.3789 69.7483L25.379 69.7483L25.4905 67.451ZM25.0726 67.4256L24.8984 69.719L24.8986 69.719L25.0726 67.4256ZM24.9525 67.4149L25.1563 65.1239L25.1559 65.1239L24.9525 67.4149ZM24.9163 67.4119L24.6988 69.7016L24.7016 69.7019L24.9163 67.4119ZM24.9105 67.411L25.1985 65.1291C25.1741 65.126 25.1497 65.1233 25.1252 65.121L24.9105 67.411ZM9.95441 60.2752L8.36538 61.938L8.3654 61.9381L9.95441 60.2752ZM3.10577 47.4901L1.47943 45.8637C0.943878 46.3993 0.706314 47.1642 0.844225 47.9089L3.10577 47.4901ZM3.10675 47.4891L4.7331 49.1154C5.28004 48.5685 5.51543 47.7833 5.35957 47.0256L3.10675 47.4891ZM3.12335 32.8485L0.882244 32.3313L0.880826 32.3375L3.12335 32.8485ZM3.12628 32.8358L0.887059 32.3105L0.885182 32.3186L3.12628 32.8358ZM9.52863 20.493L11.2265 22.0445L11.2303 22.0404L9.52863 20.493ZM12.6898 17.5018L11.3098 15.6617L11.3097 15.6618L12.6898 17.5018ZM15.7728 16.1356L15.952 18.4286C17.1491 18.335 18.0728 17.3363 18.0728 16.1356H15.7728ZM15.7728 16.1346L15.5442 13.846C14.3683 13.9634 13.4728 14.9528 13.4728 16.1346H15.7728ZM17.7454 16.5496L18.8967 14.5585L18.8966 14.5584L17.7454 16.5496ZM19.0657 17.9012L21.0507 16.7393L21.0506 16.7391L19.0657 17.9012ZM19.9935 21.3446L17.7035 21.5595C17.8145 22.7413 18.8065 23.6446 19.9935 23.6446V21.3446ZM19.9944 21.3446L22.283 21.1157C22.1655 19.9399 21.1761 19.0446 19.9944 19.0446V21.3446ZM19.9954 21.3543L17.7068 21.5832C17.7077 21.5916 17.7086 21.5999 17.7095 21.6083L19.9954 21.3543ZM19.9964 21.3631L22.287 21.1549C22.2856 21.1396 22.284 21.1244 22.2823 21.1091L19.9964 21.3631ZM20.1116 22.4862L17.8294 22.7713L17.8294 22.7714L20.1116 22.4862ZM20.1888 23.0067L17.9245 23.4107C17.9274 23.4264 17.9303 23.4421 17.9334 23.4577L20.1888 23.0067ZM20.2278 23.202L17.9725 23.653C17.9912 23.7466 18.0157 23.8388 18.0459 23.9293L20.2278 23.202ZM20.2552 23.284L22.491 22.7443C22.4757 22.6811 22.4577 22.6184 22.4372 22.5567L20.2552 23.284ZM20.2757 23.369L18.0399 23.9086L20.2757 23.369ZM20.6243 24.2733L18.7446 25.5987C19.1177 26.1278 19.6966 26.4752 20.339 26.5555L20.6243 24.2733ZM20.6712 24.2791L20.9602 21.9973L20.9565 21.9969L20.6712 24.2791ZM20.7278 24.2752L21.1333 26.5392L21.1371 26.5385L20.7278 24.2752ZM20.9398 24.203L21.896 26.2947L21.8969 26.2944L20.9398 24.203ZM21.8372 23.5487L23.4048 25.2317C23.4507 25.1889 23.4949 25.1443 23.5371 25.098L21.8372 23.5487ZM24.4622 19.9989L26.3759 21.2747C26.3856 21.2602 26.3951 21.2456 26.4044 21.2309L24.4622 19.9989ZM27.8704 14.8475L29.742 16.1843C29.7507 16.1722 29.7593 16.1599 29.7678 16.1475L27.8704 14.8475ZM32.1702 9.44026L33.8294 11.0331L33.8307 11.0317L32.1702 9.44026ZM36.2835 5.76643L37.6635 7.60644L37.6709 7.60088L36.2835 5.76643ZM42.429 2.60628L42.911 4.85524L42.9205 4.85315L42.429 2.60628ZM42.4603 2.59944L42.0488 0.336541C42.022 0.34141 41.9954 0.346755 41.9688 0.352571L42.4603 2.59944ZM42.4925 2.59358L42.9034 4.85657C43.4343 4.76017 43.9446 4.87652 44.445 5.22684L45.764 3.34261L47.0829 1.45837C45.6801 0.47639 43.9395 -0.00680828 42.0815 0.330593L42.4925 2.59358ZM45.764 3.34261L44.4449 5.22679C44.879 5.53065 45.2731 6.01633 45.6178 6.71263L47.679 5.69221L49.7403 4.6718C49.1699 3.51969 48.3338 2.33405 47.083 1.45842L45.764 3.34261ZM47.679 5.69221L45.5941 6.66346L45.7807 7.06385L47.8655 6.09261L49.9504 5.12136L49.7639 4.72097L47.679 5.69221ZM47.8655 6.09261L45.7445 6.98208L45.7699 7.04262L47.8909 6.15315L50.012 5.26368L49.9866 5.20313L47.8655 6.09261ZM47.8909 6.15315L45.7554 7.00735C46.0665 7.78504 46.2586 9.25409 46.3133 11.4441L48.6126 11.3866L50.9119 11.3291C50.8576 9.16001 50.6781 6.92825 50.0264 5.29896L47.8909 6.15315ZM48.6126 11.3866V9.08655H48.6116V11.3866V13.6866H48.6126V11.3866ZM48.6116 11.3866L46.3137 11.4843C46.4201 13.9847 46.3115 17.0585 45.9849 20.7058L48.2757 20.911L50.5665 21.1161C50.9039 17.3488 51.0274 14.0591 50.9096 11.2888L48.6116 11.3866ZM48.2757 20.911L45.9849 20.7059C45.8197 22.5499 45.8384 24.0155 46.0504 25.0905L48.3069 24.6453L50.5635 24.2002C50.4758 23.7558 50.4162 22.7952 50.5665 21.1161L48.2757 20.911ZM48.3069 24.6453L46.0505 25.0907C46.101 25.3468 46.1585 25.5566 46.2139 25.7281L48.4026 25.0213L50.5914 24.3145C50.5884 24.3053 50.5772 24.2701 50.5634 24.2L48.3069 24.6453ZM48.4026 25.0213L49.0459 27.2295C49.0824 27.2189 49.1898 27.1882 49.3125 27.145L48.5491 24.9754L47.7858 22.8058C47.7945 22.8027 47.7988 22.8015 47.7955 22.8025C47.7938 22.803 47.7906 22.804 47.7846 22.8057C47.778 22.8077 47.7715 22.8096 47.7594 22.8131L48.4026 25.0213ZM48.5491 24.9754L49.3132 27.1448C49.993 26.9054 50.7743 26.4805 51.6497 25.8881L50.3607 23.9832L49.0716 22.0784C48.3633 22.5577 47.9483 22.7486 47.7851 22.806L48.5491 24.9754ZM50.3607 23.9832L51.6726 25.8724L52.0241 25.6282L50.7122 23.7391L49.4003 21.8499L49.0487 22.0941L50.3607 23.9832ZM50.7122 23.7391L52.0564 25.6054C52.3333 25.406 52.5657 25.3195 52.7579 25.3093L52.637 23.0125L52.5161 20.7157C51.1418 20.7881 50.0694 21.3676 49.368 21.8728L50.7122 23.7391ZM52.637 23.0125L52.7576 25.3094C52.9437 25.2996 53.1231 25.3592 53.3023 25.516L54.8167 23.785L56.3311 22.0539C55.3701 21.2132 54.0478 20.6353 52.5165 20.7157L52.637 23.0125ZM54.8167 23.785L53.3021 25.5159C53.6797 25.8463 53.9949 26.4943 54.2106 27.5187L56.4612 27.0448L58.7119 26.5708C58.4382 25.271 57.8609 23.3925 56.3313 22.0541L54.8167 23.785ZM56.4612 27.0448V24.7448H56.4603V27.0448V29.3448H56.4612V27.0448ZM56.4603 27.0448L54.212 27.5297C54.3279 28.0674 54.3892 29.1384 54.36 30.5741L56.6595 30.6209L58.959 30.6677C58.9888 29.2034 58.9469 27.665 58.7086 26.5599L56.4603 27.0448ZM56.6595 30.6209L54.36 30.5741C54.3306 32.0158 54.2107 33.8107 53.9703 35.774L56.2532 36.0535L58.5362 36.3331C58.7943 34.2253 58.9263 32.2748 58.959 30.6678L56.6595 30.6209ZM56.2532 36.0535L53.9703 35.7739C53.49 39.6955 52.53 44.2759 50.8648 48.0609L52.97 48.9871L55.0753 49.9134C56.992 45.5567 58.0276 40.4854 58.5362 36.3332L56.2532 36.0535ZM52.97 48.9871L51.3437 50.6135L51.3447 50.6145L52.971 48.9881L54.5974 47.3618L54.5964 47.3608L52.97 48.9871ZM52.971 48.9881L50.8542 48.0885C49.001 52.4491 46.6885 55.9551 43.9224 58.6128L45.5159 60.2713L47.1095 61.9298C50.4133 58.7554 53.0459 54.6922 55.0878 49.8877L52.971 48.9881ZM45.5159 60.2713L43.9224 58.6128C39.9679 62.4122 35.2701 64.0407 31.5526 64.7186L31.9651 66.9813L32.3777 69.244C36.6614 68.4629 42.3014 66.5493 47.1094 61.9299L45.5159 60.2713ZM31.9651 66.9813L31.5526 64.7186C29.6951 65.0572 28.0852 65.1578 26.9411 65.1737L26.973 67.4735L27.0048 69.7732C28.3528 69.7546 30.2228 69.6368 32.3777 69.244L31.9651 66.9813ZM26.973 67.4735L26.9412 65.1737C26.3679 65.1816 25.912 65.1688 25.6021 65.1537L25.4905 67.451L25.379 69.7483C25.7786 69.7677 26.3303 69.7826 27.0048 69.7732L26.973 67.4735ZM25.4905 67.451L25.6022 65.1537C25.4449 65.1461 25.3249 65.1381 25.2466 65.1322L25.0726 67.4256L24.8986 69.719C25.0205 69.7283 25.1821 69.7387 25.3789 69.7483L25.4905 67.451ZM25.0726 67.4256L25.2467 65.1322C25.2405 65.1317 25.2325 65.1311 25.2194 65.1298C25.2119 65.1291 25.206 65.1286 25.195 65.1275C25.186 65.1267 25.1716 65.1253 25.1563 65.1239L24.9525 67.4149L24.7486 69.7058C24.748 69.7058 24.7498 69.7059 24.7583 69.7067C24.7648 69.7074 24.7777 69.7086 24.7903 69.7098C24.8174 69.7123 24.8548 69.7157 24.8984 69.719L25.0726 67.4256ZM24.9525 67.4149L25.1559 65.1239C25.1438 65.1228 25.1333 65.1219 25.1252 65.1213C25.1173 65.1207 25.1105 65.1202 25.1076 65.1199C25.1057 65.1198 25.1052 65.1197 25.1048 65.1197C25.1046 65.1197 25.1055 65.1198 25.1071 65.1199C25.1096 65.1201 25.1187 65.1208 25.131 65.122L24.9163 67.4119L24.7016 69.7019C24.7187 69.7035 24.7328 69.7047 24.7407 69.7053C24.7483 69.7059 24.7557 69.7065 24.7574 69.7066C24.764 69.7071 24.7577 69.7066 24.749 69.7059L24.9525 67.4149ZM24.9163 67.4119L25.1338 65.1222C25.1691 65.1256 25.1999 65.1294 25.2249 65.1328C25.25 65.1362 25.2715 65.1395 25.2882 65.1423C25.305 65.145 25.3188 65.1475 25.3283 65.1492C25.3377 65.1509 25.345 65.1523 25.3476 65.1528C25.349 65.1531 25.3501 65.1533 25.3498 65.1533C25.3498 65.1533 25.3494 65.1532 25.349 65.1531C25.3485 65.153 25.3477 65.1529 25.3468 65.1527C25.3437 65.1521 25.3353 65.1505 25.3246 65.1485C25.3139 65.1466 25.2975 65.1437 25.2775 65.1404C25.2576 65.1372 25.2306 65.1331 25.1985 65.1291L24.9105 67.411L24.6224 69.6929C24.5907 69.6889 24.5642 69.6848 24.5448 69.6817C24.5252 69.6785 24.5093 69.6757 24.499 69.6738C24.4888 69.672 24.4809 69.6705 24.4783 69.6699C24.4769 69.6697 24.4757 69.6695 24.4761 69.6695C24.4761 69.6695 24.4765 69.6696 24.4769 69.6697C24.4774 69.6698 24.4781 69.6699 24.479 69.6701C24.4837 69.671 24.5091 69.6759 24.5414 69.6812C24.5738 69.6866 24.6294 69.695 24.6988 69.7016L24.9163 67.4119ZM24.9105 67.411L25.1252 65.121C19.9332 64.6342 14.5606 61.4956 11.5434 58.6124L9.95441 60.2752L8.3654 61.9381C11.918 65.3329 18.2126 69.093 24.6957 69.7009L24.9105 67.411ZM9.95441 60.2752L11.5434 58.6124C8.53526 55.7377 6.18007 51.4601 5.36732 47.0713L3.10577 47.4901L0.844225 47.9089C1.83173 53.2414 4.65403 58.3914 8.36538 61.938L9.95441 60.2752ZM3.10577 47.4901L4.73212 49.1164L4.7331 49.1154L3.10675 47.4891L1.4804 45.8627L1.47943 45.8637L3.10577 47.4901ZM3.10675 47.4891L5.35957 47.0256C4.38785 42.3022 4.39082 37.6389 5.36588 33.3594L3.12335 32.8485L0.880826 32.3375C-0.253927 37.3178 -0.237168 42.6488 0.853929 47.9525L3.10675 47.4891ZM3.12335 32.8485L5.36445 33.3656L5.36738 33.3529L3.12628 32.8358L0.885182 32.3186L0.882252 32.3313L3.12335 32.8485ZM3.12628 32.8358L5.36549 33.3611C6.39781 28.9607 8.35212 25.1901 11.2265 22.0445L9.52863 20.493L7.83073 18.9415C4.39455 22.7019 2.088 27.1913 0.887074 32.3105L3.12628 32.8358ZM9.52863 20.493L11.2303 22.0404C12.3198 20.8423 13.2661 19.9445 14.0698 19.3418L12.6898 17.5018L11.3097 15.6618C10.1797 16.5093 9.01274 17.6416 7.82696 18.9456L9.52863 20.493ZM12.6898 17.5018L14.0697 19.3419C14.8508 18.7561 15.477 18.4657 15.952 18.4286L15.7728 16.1356L15.5935 13.8426C13.7838 13.984 12.2873 14.9287 11.3098 15.6617L12.6898 17.5018ZM15.7728 16.1356H18.0728V16.1346H15.7728H13.4728V16.1356H15.7728ZM15.7728 16.1346L16.0013 18.4232C16.2292 18.4005 16.4241 18.4424 16.5943 18.5408L17.7454 16.5496L18.8966 14.5584C17.817 13.9343 16.642 13.7364 15.5442 13.846L15.7728 16.1346ZM17.7454 16.5496L16.5941 18.5407C16.7675 18.641 16.9322 18.8092 17.0809 19.0633L19.0657 17.9012L21.0506 16.7391C20.6112 15.9887 19.9295 15.1557 18.8967 14.5585L17.7454 16.5496ZM19.0657 17.9012L17.0808 19.0631C17.3807 19.5754 17.5945 20.3982 17.7035 21.5595L19.9935 21.3446L22.2834 21.1296C22.1546 19.7582 21.8633 18.1276 21.0507 16.7393L19.0657 17.9012ZM19.9935 21.3446V23.6446H19.9944V21.3446V19.0446H19.9935V21.3446ZM19.9944 21.3446L17.7059 21.5734L17.7068 21.5832L19.9954 21.3543L22.284 21.1255L22.283 21.1157L19.9944 21.3446ZM19.9954 21.3543L17.7095 21.6083L17.7105 21.6171L19.9964 21.3631L22.2823 21.1091L22.2814 21.1003L19.9954 21.3543ZM19.9964 21.3631L17.7058 21.5713C17.7328 21.8684 17.7739 22.3272 17.8294 22.7713L20.1116 22.4862L22.3939 22.201C22.3497 21.8472 22.3153 21.4671 22.287 21.1549L19.9964 21.3631ZM20.1116 22.4862L17.8294 22.7714C17.858 23.0007 17.8904 23.2192 17.9245 23.4107L20.1888 23.0067L22.453 22.6026C22.4359 22.5067 22.415 22.3695 22.3939 22.2009L20.1116 22.4862ZM20.1888 23.0067L17.9334 23.4577L17.9725 23.653L20.2278 23.202L22.4832 22.7509L22.4441 22.5556L20.1888 23.0067ZM20.2278 23.202L18.0459 23.9293L18.0732 24.0113L20.2552 23.284L22.4372 22.5567L22.4098 22.4747L20.2278 23.202ZM20.2552 23.284L18.0194 23.8237L18.0399 23.9086L20.2757 23.369L22.5115 22.8293L22.491 22.7443L20.2552 23.284ZM20.2757 23.369L18.0399 23.9086C18.2173 24.6435 18.459 25.1935 18.7446 25.5987L20.6243 24.2733L22.504 22.9478C22.5748 23.0483 22.5964 23.1046 22.5889 23.0869C22.5822 23.071 22.5509 22.9924 22.5115 22.8293L20.2757 23.369ZM20.6243 24.2733L20.339 26.5555L20.3859 26.5614L20.6712 24.2791L20.9565 21.9969L20.9096 21.991L20.6243 24.2733ZM20.6712 24.2791L20.3822 26.5609C20.617 26.5906 20.8683 26.5867 21.1333 26.5392L20.7278 24.2752L20.3224 22.0112C20.4087 21.9958 20.5116 21.9835 20.6286 21.9805C20.6874 21.979 20.7477 21.9799 20.8095 21.9835C20.8756 21.9873 20.9289 21.9934 20.9602 21.9974L20.6712 24.2791ZM20.7278 24.2752L21.1371 26.5385C21.386 26.4935 21.6394 26.4121 21.896 26.2947L20.9398 24.203L19.9835 22.1112C20.0354 22.0875 20.1486 22.0427 20.3185 22.0119L20.7278 24.2752ZM20.9398 24.203L21.8969 26.2944C22.4001 26.0641 22.9028 25.6993 23.4048 25.2317L21.8372 23.5487L20.2696 21.8656C20.1372 21.989 20.0431 22.0623 19.9882 22.1013C19.9307 22.1421 19.9292 22.136 19.9827 22.1116L20.9398 24.203ZM21.8372 23.5487L23.5371 25.098C24.2516 24.3141 25.1991 23.04 26.3759 21.2747L24.4622 19.9989L22.5485 18.723C21.4019 20.443 20.6099 21.4809 20.1373 21.9993L21.8372 23.5487ZM24.4622 19.9989L26.4044 21.2309C27.8169 19.0043 28.929 17.3226 29.742 16.1843L27.8704 14.8475L25.9988 13.5106C25.1113 14.7532 23.9456 16.5197 22.5201 18.7668L24.4622 19.9989ZM27.8704 14.8475L29.7678 16.1475C31.1792 14.0876 32.5332 12.3833 33.8294 11.0331L32.1702 9.44026L30.511 7.84746C28.9943 9.42747 27.4837 11.3428 25.9731 13.5474L27.8704 14.8475ZM32.1702 9.44026L33.8307 11.0317C35.0826 9.72551 36.3605 8.58368 37.6635 7.60643L36.2835 5.76643L34.9035 3.92644C33.38 5.06905 31.9163 6.38119 30.5097 7.8488L32.1702 9.44026ZM36.2835 5.76643L37.6709 7.60088C39.6826 6.07943 41.4284 5.17294 42.911 4.85522L42.429 2.60628L41.9471 0.357339C39.5243 0.876538 37.1509 2.22677 34.8961 3.93198L36.2835 5.76643ZM42.429 2.60628L42.9205 4.85315L42.9518 4.84631L42.4603 2.59944L41.9688 0.352571L41.9375 0.359407L42.429 2.60628ZM42.4603 2.59944L42.8717 4.86234L42.9039 4.85648L42.4925 2.59358L42.0811 0.330681L42.0488 0.336541L42.4603 2.59944Z" fill="#B64600"/>
<path d="M43.2674 6.634C43.2745 6.63572 43.3202 6.64749 43.4071 6.70822C43.5378 6.79972 43.7956 7.05788 44.0829 7.70139C44.257 8.15755 44.4505 9.31942 44.5047 11.4895L44.5057 11.508L44.5067 11.5276C44.611 13.9267 44.5075 16.9258 44.1834 20.5442C44.0124 22.454 44.0151 24.1187 44.2762 25.4416C44.5158 26.6554 45.0924 28.1291 46.5438 28.8108V28.8127C46.5694 28.8255 46.5963 28.8358 46.6219 28.8479C46.6325 28.8525 46.6425 28.8589 46.6532 28.8635V28.8625C47.7869 29.3807 48.9814 29.1792 49.912 28.8518C50.6913 28.5776 51.513 28.1362 52.3661 27.5803C52.3908 27.6745 52.4163 27.778 52.4403 27.8918L52.4442 27.9094C52.5107 28.2126 52.5819 29.0966 52.5526 30.5373C52.5246 31.9139 52.4092 33.6477 52.1756 35.5549C51.7052 39.3956 50.7721 43.7923 49.2001 47.3557L49.1952 47.3694L49.1893 47.382C47.4102 51.5681 45.2237 54.8541 42.6688 57.3088C39.049 60.7866 34.7223 62.3036 31.2284 62.9406C29.4877 63.258 27.9802 63.3517 26.9159 63.3664C26.3848 63.3738 25.9667 63.3614 25.6893 63.3479C25.5508 63.3411 25.4473 63.3342 25.3827 63.3293C25.3505 63.3269 25.3278 63.3246 25.3153 63.3235C25.3113 63.3231 25.3084 63.3227 25.3065 63.3225H25.3016L25.2938 63.3215L24.8534 63.2737C20.2978 62.7019 15.5117 59.903 12.7928 57.3049C10.061 54.6943 7.8894 50.7602 7.14536 46.7424L7.14146 46.7209L7.13657 46.7004L6.97349 45.8567C6.21008 41.6471 6.26975 37.5363 7.12486 33.7746C8.09087 29.6564 9.90659 26.1681 12.5604 23.2639L12.5643 23.26C13.6173 22.1016 14.478 21.2954 15.1542 20.7883C15.3706 20.6259 15.5473 20.5109 15.6864 20.4289C15.694 20.4565 15.7041 20.4854 15.7118 20.5158C15.7886 20.821 15.8563 21.2224 15.9042 21.7346V21.7356C15.9044 21.7387 15.9048 21.7421 15.9051 21.7453V21.7473L15.9061 21.7541C15.9333 22.0534 15.9765 22.5284 16.035 22.9963C16.0835 23.3842 16.1631 23.9491 16.2997 24.4026C16.5343 25.3453 16.912 26.2704 17.5487 27.0051C18.2527 27.8174 19.204 28.3112 20.3084 28.3694V28.3674C22.029 28.5227 23.5263 27.6109 24.7059 26.4934L24.7538 26.4485L24.7987 26.4006C25.6292 25.5062 26.6635 24.1029 27.8797 22.2785L27.8924 22.259L27.9051 22.2385C29.3241 20.0009 30.424 18.3399 31.2127 17.2356L31.2245 17.219L31.2362 17.2014C32.6167 15.1837 33.9172 13.5525 35.1336 12.2854L35.1346 12.2844C36.326 11.0412 37.531 9.96564 38.7479 9.05295L38.7547 9.04807C40.6495 7.61418 42.1364 6.88135 43.2459 6.63303C43.2527 6.63237 43.2571 6.63201 43.2586 6.63205C43.261 6.63212 43.2636 6.63308 43.2674 6.634Z" fill="#FF7301" stroke="#FF6200" stroke-width="4.10819"/>
<path d="M26.3469 40.1602C23.9723 40.5235 26.5738 33.1023 23.9381 32.6441C22.0075 32.0903 19.3138 34.9726 17.3096 37.0385C15.3054 39.1044 13.5388 42.6723 13.4209 45.9963C13.362 47.8555 13.6861 49.6864 14.3931 51.4893C15.0412 53.0667 15.8956 54.4752 16.9561 55.7146C17.5453 56.447 18.3407 57.1513 19.3424 57.8273C20.6386 58.6161 22.0821 59.1795 23.673 59.5175C27.1492 60.3062 30.3309 59.8273 33.2179 58.0809C36.105 56.3907 38.3145 53.94 39.8464 50.7287C41.2015 47.9681 41.9675 44.8695 42.1443 41.4329C42.2621 38.5033 41.997 35.7709 41.3488 33.2357C38.5153 21.0433 30.971 39.4527 26.3469 40.1602Z" fill="#FFC702"/>
</svg>
