<svg width="37" height="36" viewBox="0 0 37 36" fill="none" xmlns="http://www.w3.org/2000/svg">
<path d="M20.1187 18.7277C20.001 17.0386 20.5105 15.8353 21.6472 15.1177C20.3897 15.711 19.1322 15.7002 17.8746 15.0852L6.65444 10.5971C3.46327 10.569 3.02964 9.50662 5.35355 7.40995C3.67145 8.50292 2.89091 10.1507 3.01194 12.3533V23.9638C3.1942 26.4882 4.365 28.2335 6.52435 29.1999L16.7364 33.6229C18.0049 33.9996 19.1323 34.0863 20.1187 33.8831V18.7277Z" fill="#79DDFF"/>
<path d="M31.1767 10.2393C32.1685 9.49353 31.9734 8.27937 30.5913 6.59684L22.3957 3.14948C21.0514 2.45567 19.8047 2.07624 18.6556 2.0112C17.5282 1.94615 16.3899 2.16297 15.2408 2.66164L6.03695 7.05215C5.79828 7.16937 5.57063 7.28862 5.35398 7.4099C3.03007 9.50657 3.46371 10.569 6.65487 10.5971L17.8751 15.0852C19.1326 15.7001 20.3901 15.711 21.6477 15.1177C21.892 14.9658 22.163 14.8357 22.4607 14.7274L31.1767 10.2393Z" fill="#BDF1FF"/>
<path d="M30.818 6.69434C30.7402 6.65403 30.6535 6.61066 30.5578 6.56425C30.5705 6.57949 30.5813 6.59033 30.5903 6.59677C31.9724 8.27929 32.1676 9.49346 31.1757 10.2393L22.4597 14.7273C22.162 14.8357 21.891 14.9658 21.6467 15.1176C20.5099 15.8351 20.0004 17.0385 20.1181 18.7276V33.883C20.4539 33.8333 20.7683 33.7465 21.0613 33.6228L31.1757 29.2323C33.3439 28.2349 34.5147 26.4787 34.6881 23.9637V12.3532C34.7203 11.7413 34.6553 11.1559 34.493 10.597C34.4616 10.4596 34.4182 10.3187 34.3629 10.1742C33.8232 8.79584 32.6416 7.63588 30.818 6.69434Z" fill="#36BAFB"/>
<g opacity="0.5">
<path d="M34.6886 12.3532C34.4935 11.8763 34.255 11.4751 33.9732 11.1499C33.8647 11.0415 33.7672 10.9439 33.6805 10.8572L20.1187 24.0938V33.3301L34.6886 17.8495V12.3532Z" fill="url(#paint0_linear_4261_9327)"/>
</g>
<g opacity="0.8">
<path d="M18.9495 16.8413C16.4561 15.8656 14.0169 14.89 11.6319 13.9143L3.82659 21.492C3.16827 28.5502 4.5342 30.9026 7.9244 28.5493L18.9495 16.8413Z" fill="url(#paint1_linear_4261_9327)"/>
</g>
<path d="M5.15894 10.6622L18.8508 16.2235" stroke="#EBFAFF" stroke-width="2.49771" stroke-linecap="round" stroke-linejoin="round"/>
<path d="M3.01251 23.9638V12.3533C2.8764 9.87592 3.8846 8.10888 6.03708 7.05215L15.2409 2.66164C16.39 2.16297 17.5283 1.94615 18.6557 2.0112C19.8049 2.07624 21.0515 2.45567 22.3958 3.14948L31.6647 7.05215C33.8111 8.11455 34.8193 9.8816 34.6892 12.3533V23.9638C34.5158 26.4788 33.345 28.235 31.1768 29.2324L21.0624 33.6229C19.8719 34.1256 18.43 34.1256 16.7369 33.6229L6.52492 29.2161C4.36557 28.2389 3.19477 26.4881 3.01251 23.9638Z" stroke="#1793FF" stroke-width="2.26421" stroke-linecap="round" stroke-linejoin="round"/>
<defs>
<linearGradient id="paint0_linear_4261_9327" x1="20.1187" y1="22.0774" x2="34.6886" y2="22.0774" gradientUnits="userSpaceOnUse">
<stop stop-color="white" stop-opacity="0"/>
<stop offset="1" stop-color="white"/>
</linearGradient>
<linearGradient id="paint1_linear_4261_9327" x1="1.47685" y1="21.3619" x2="19.7707" y2="21.3619" gradientUnits="userSpaceOnUse">
<stop stop-color="white" stop-opacity="0"/>
<stop offset="1" stop-color="white"/>
</linearGradient>
</defs>
</svg>
