<svg width="310" height="50" viewBox="0 0 310 50" fill="none" xmlns="http://www.w3.org/2000/svg">
<g clip-path="url(#clip0_7_3152)">
<path d="M23.5281 49.287C19.4174 48.9691 15.6118 48.7286 11.9502 47.2337C4.47464 44.1925 -0.212444 35.8592 -0.000551088 28.677C0.211342 21.7784 2.43199 15.5757 6.39863 10.0258C8.11073 7.62892 10.6026 6.12548 13.0775 4.665C17.5696 2.03613 22.3245 0.455376 27.5964 0.773246C32.1394 1.04816 36.1908 2.57737 40.0897 4.96569C46.6499 8.98631 50.2436 18.0327 48.7604 25.988C47.5144 32.6461 44.531 38.4107 39.7422 43.1358C36.3943 46.4348 32.2242 48.1186 27.6812 48.8918C26.2234 49.1409 24.7316 49.1839 23.5281 49.2956V49.287ZM16.756 27.5688C16.739 31.3231 19.5021 33.5568 23.0958 32.5688C26.6556 31.598 29.2492 29.1667 31.5461 26.409C33.165 24.4674 34.555 22.354 35.1229 19.8025C36.0129 15.7475 33.1481 12.6289 29.2153 13.6513C24.6215 14.8454 21.1125 17.7062 18.7223 21.8815C17.7137 23.6341 16.6882 25.4124 16.756 27.5602V27.5688Z" fill="#ff6200"/>
<path d="M202.74 21.7783C202.375 28.7629 200.816 35.4553 197.697 41.6838C196.773 43.5309 195.442 45.2491 194.018 46.7354C191.594 49.2612 187.983 49.7337 184.822 48.2904C183.898 47.8694 183.415 47.122 183.152 46.2027C182.669 44.5189 182.517 42.7835 183.288 41.1598C184.136 39.3728 185.187 37.6804 186.093 35.9106C186.365 35.3866 186.424 34.7594 186.585 34.1838C185.949 34.1495 185.22 33.8832 184.712 34.1151C182.712 35.0429 180.923 36.3316 179.584 38.1357C178.253 39.9227 177.304 42.0017 175.406 43.3419C174.16 44.2182 172.88 44.9055 171.346 45C169.388 45.1203 168.023 44.2783 167.243 42.4484C166.489 40.6787 166.481 38.8316 166.709 36.9673C166.811 36.1512 167.04 35.3265 166.981 34.5275C166.938 33.9347 166.633 33.0155 166.235 32.8866C165.786 32.732 164.811 33.1357 164.574 33.5825C163.904 34.811 163.336 36.1512 163.014 37.5172C162.048 41.512 159.869 44.6478 156.75 47.1735C155.208 48.4278 153.419 48.8488 151.504 48.7972C149.427 48.7371 147.825 46.8728 147.792 44.4759C147.741 41.7783 148.088 39.1409 149.037 36.5808C151.284 30.524 154.013 24.7337 158.115 19.7165C160.039 17.3625 162.158 15.189 164.98 13.9519C166.099 13.4622 167.311 13.0928 168.515 12.9467C171.024 12.646 172.693 14.0979 173.787 16.4347C174.355 17.6546 174.651 18.9948 175.151 20.2491C176.211 22.8694 178.067 23.8058 180.72 22.7234C182.313 22.0704 183.72 20.8935 185.161 19.8969C187.695 18.1529 190.136 16.2801 192.73 14.6306C194.145 13.7285 195.824 13.3763 197.519 13.7285C200.723 14.3814 202.291 16.1684 202.638 19.5275C202.714 20.2749 202.714 21.0223 202.748 21.7783H202.74Z" fill="#ff6200"/>
<path d="M203.748 36.0739C204.01 29.9055 205.79 24.8368 209.715 20.7131C213.351 16.8987 217.716 14.2956 222.86 13.1272C225.191 12.6031 227.514 12.6976 229.734 13.5481C230.692 13.9176 231.531 14.6478 232.353 15.3093C234.362 16.9244 234.498 16.7268 236.1 15.6186C237.074 14.9485 238.168 14.3471 239.295 14.0292C241.609 13.3935 243.584 14.8196 244.185 17.1306C245.041 20.4296 244.474 23.6684 243.965 26.9072C243.245 31.5121 242.05 35.9966 239.964 40.189C238.6 42.9382 236.964 45.4639 234.455 47.2853C232.404 48.7715 229.997 48.677 228.107 47.0791C227.81 46.8299 227.497 46.5464 227.336 46.2114C226.776 45.043 225.852 44.811 224.776 45.2148C223.462 45.7045 222.174 46.2973 220.903 46.8901C219.08 47.7492 217.283 48.677 215.207 48.7028C209.943 48.7801 206.138 45.5413 204.595 40.6444C204.087 39.0292 203.968 37.2853 203.756 36.0567L203.748 36.0739ZM220.623 29.9571C220.597 32.9811 222.598 34.6908 225.115 34.2097C227.497 33.7543 229.556 32.5859 231.294 30.8935C233.201 29.0464 234.371 26.9846 233.43 24.1066C232.819 22.2337 232.048 21.3488 230.09 21.4176C227.658 21.5035 225.607 22.5859 223.861 24.244C222.081 25.9193 220.801 27.878 220.623 29.9571Z" fill="#ff6200"/>
<path d="M88.5125 21.0052C88.2837 28.256 85.6223 34.5103 81.4437 40.2406C77.3754 45.8334 71.8662 48.634 65.1364 49.1151C63.5684 49.2268 61.958 49.1925 60.407 48.9777C55.2113 48.2389 50.2361 42.0963 50.4226 36.4863C50.6006 30.9279 51.5244 25.6529 54.3129 20.756C55.6012 18.488 56.6777 16.0911 58.6271 14.3213C59.6865 13.3591 60.924 12.5688 62.1784 11.8729C63.3226 11.2371 64.577 11.4176 65.7552 11.9502C67.2045 12.6031 67.8487 13.4794 67.6453 15.0602C67.3656 17.2853 66.857 19.4846 66.501 21.7097C66.3061 22.9038 66.1366 24.1237 66.1366 25.3351C66.1366 28.0756 68.9336 29.811 71.4085 28.6684C72.8833 27.9897 73.9088 26.8385 74.6547 25.4038C75.9939 22.8093 77.3161 20.1976 78.6637 17.6117C79.452 16.0997 80.5453 14.9743 82.2744 14.5447C84.8256 13.909 87.3852 16.0825 87.987 18.0756C88.2752 19.0206 88.343 20.0258 88.5125 21.0138V21.0052Z" fill="#ff6200"/>
<path d="M276.462 43.2904C276.521 39.9055 277.428 37.2337 278.581 34.6564C279.395 32.8351 280.471 31.1426 281.335 29.3471C282.056 27.8437 282.649 26.2801 283.268 24.7251C283.565 23.9777 283.37 23.3162 282.725 22.8179C281.768 22.0877 280.793 21.3746 279.835 20.6358C277.411 18.7801 277.504 15.7389 280.123 14.1753C280.996 13.6598 282.09 13.488 283.107 13.2732C285.243 12.8093 287.463 12.6461 289.498 11.9158C290.599 11.5206 291.566 10.3351 292.269 9.27838C293.812 6.96738 295.422 4.78525 297.948 3.49659C299.168 2.87803 300.44 2.44848 301.804 2.98113C303.389 3.60827 304.203 4.69934 304.127 6.43473C304.067 7.92958 303.788 9.41583 303.618 10.9021C303.55 11.4691 303.491 12.0447 303.5 12.6117C303.525 14.0206 303.847 14.3643 305.135 14.8883C306.212 15.3179 307.314 15.7646 308.263 16.4261C310.289 17.8351 310.551 20.3007 308.983 22.2337C307.831 23.6512 306.28 24.4502 304.559 24.8024C301.686 25.3952 299.821 26.9932 298.982 29.8626C298.406 31.8471 297.728 33.8059 297.126 35.7818C295.99 39.4846 294.303 42.8609 291.761 45.7904C290.328 47.4399 288.616 48.634 286.624 49.4674C283.209 50.8935 279.132 49.4072 277.064 45.7045C276.598 44.8712 276.581 43.7887 276.462 43.2818V43.2904Z" fill="#ff6200"/>
<path d="M89.6309 41.28C89.9529 37.9553 90.8937 34.9141 92.2668 31.9759C93.1991 29.9742 94.0382 27.9295 94.8265 25.8677C95.6062 23.8144 95.0638 22.0103 93.5467 20.4725C93.1483 20.0687 92.7584 19.6563 92.3431 19.2611C90.4361 17.4828 90.6056 14.6735 92.8855 13.3848C94.1399 12.6718 95.6317 12.3539 97.0386 11.9587C97.7421 11.7611 98.5219 11.8385 99.2423 11.6838C100.904 11.3144 102.353 10.5928 103.336 9.07213C104.404 7.43124 105.489 5.79035 106.659 4.22677C108.133 2.25083 109.93 0.747391 112.431 0.163199C116.474 -0.781818 118.075 2.71475 117.55 5.32643C117.321 6.47763 116.999 7.62024 116.677 8.74567C116.05 10.9794 116.49 11.9587 118.406 13.213C119.304 13.8058 120.118 14.6048 120.771 15.4725C121.805 16.847 121.593 19.0721 120.245 20.1374C119.067 21.0653 117.728 21.8642 116.346 22.457C114.092 23.4278 112.592 25 111.659 27.268C109.871 31.6237 108.066 35.9708 106.159 40.2749C104.811 43.3075 102.921 45.9879 100.242 47.9897C96.6742 50.6443 92.2244 49.39 90.5971 45.2062C90.114 43.9604 89.9445 42.5945 89.6309 41.2886V41.28Z" fill="#ff6200"/>
<path d="M137.942 12.5C141.477 12.3626 143.884 12.7234 146.198 13.5395C147.079 13.8488 147.944 14.3471 148.681 14.9313C150.732 16.5636 151.02 19.3557 149.198 21.2457C148.105 22.3797 146.799 23.4364 145.384 24.0464C144.392 24.476 143.062 24.0894 141.883 24.098C141.053 24.098 140.18 24.0035 139.392 24.2182C138.307 24.5189 138.171 25.3437 138.942 26.1598C139.256 26.4949 139.612 26.8127 140.002 27.0447C142.833 28.72 144.223 31.4605 144.952 34.4846C145.799 38.0155 144.528 41.0997 142.18 43.7457C139.358 46.9416 135.688 48.445 131.611 49.098C127.602 49.7423 123.737 49.2526 120.016 47.6203C117.965 46.7182 116.278 45.3351 115.015 43.4622C114.202 42.2595 113.99 40.9107 114.058 39.476C114.295 34.3041 119.567 30.0687 124.373 31.2973C125.364 31.555 126.254 32.2165 127.186 32.7062C127.856 33.0584 128.577 33.7801 129.255 32.9983C129.873 32.2852 129.212 31.5808 128.746 31.0224C128.288 30.4811 127.78 29.9657 127.22 29.5447C124.551 27.543 124.008 24.7767 124.525 21.701C125.093 18.3162 127.017 15.9536 130.136 14.5619C132.975 13.299 135.925 12.5258 137.959 12.5H137.942Z" fill="#ff6200"/>
<path d="M243.966 42.2165C243.991 38.8832 244.678 35.6529 245.915 32.6031C247.703 28.2131 249.517 23.823 251.662 19.6048C253.009 16.9588 255.043 14.7165 258.239 14.1838C259.917 13.9089 261.349 14.3041 262.46 15.7732C262.731 16.134 263.528 16.3832 263.977 16.2715C264.85 16.0481 265.663 15.5756 266.469 15.1375C268.274 14.1323 270.164 13.5481 272.241 13.6684C274.368 13.7887 275.868 14.9141 276.36 17.0275C277.436 21.6838 275.529 24.6821 271.393 26.5292C270.401 26.9759 269.333 27.2509 268.299 27.6031C266.308 28.2904 264.994 29.5962 264.273 31.6667C263.316 34.4244 262.299 37.1821 261.044 39.811C259.629 42.7835 257.857 45.567 255.052 47.4571C254.238 48.0069 253.382 48.5567 252.475 48.9003C248.22 50.5326 244.194 47.8093 243.974 43.1873C243.957 42.8694 243.974 42.543 243.974 42.2251L243.966 42.2165Z" fill="#ff6200"/>
</g>
<defs>
<clipPath id="clip0_7_3152">
<rect width="310" height="50" fill="#ff6200"/>
</clipPath>
</defs>
</svg>
